<svg id="Layer_1" xmlns="http://www.w3.org/2000/svg" viewBox="0 0 300 115.2"><style>.st0{display:none;fill:#FFFFFF;} .st1{display:none;} .st2{display:inline;} .st3{fill:#EC1C24;} .st4{fill:#231F20;}</style><path class="st0" d="M-90-96.6h1500v700H-90z"/><g class="st1"><g class="st2"><path class="st3" d="M23.3 431.7h1.1L58 475.9l33.6-44.3h1.1V507h-4.3v-59.2c0-2.6.2-6.5.2-6.5s-2.1 3.6-4.1 6.1l-26 34.6h-1.2l-25.9-34.4c-1.9-2.4-4.1-6.1-4.1-6.1s.2 3.8.2 6.5v59.2h-4.3v-75.5zM140.1 431.7h1.3l30.2 75.4H167l-5.7-14.5h-41.2l-5.7 14.5H110l30.1-75.4zm19.6 56.9L143 446.1c-1.1-2.6-2.2-6.8-2.2-6.8s-1.1 4.2-2.2 6.8l-16.9 42.5h38zM197.4 473.3l32.2-40.8h5l-28.9 37 31.8 37.5H232l-29-34.3-9.5 11.7V507H189v-74.5h4.5v39.8c0 3.2-.3 6.8-.4 8.4 1.4-2.6 3.5-6.2 4.3-7.4zM254.3 432.5h43.5v3.9h-39v39.9h35v3.9h-35V503h40.5v3.9h-45v-74.4zM362 436.5h-23.7v-3.9h51.8v3.9h-23.7v70.6H362v-70.6zM406.2 432.5h4.5v43.8h43.4v-43.8h4.5V507h-4.5v-26.6h-43.4V507h-4.5v-74.5zM482.7 432.5h4.5V507h-4.5v-74.5zM518.5 446.1c-1.4-1.9-3.4-4.9-3.4-4.9s.3 3.4.3 5.6v60.3h-4.2v-75.4h1.3l47.7 61.8c1.4 1.9 3.4 4.9 3.4 4.9s-.3-3.4-.3-5.6v-60.3h4.2v75.4h-1.3l-47.7-61.8zM586.2 469.8c0-22.7 17.2-38.1 38.5-38.1 10.1 0 19.4 3 25.4 9.3l-3 3.1c-5.4-5.6-13-8.3-22.5-8.3-19.4 0-33.9 14.6-33.9 34.1s14.5 34.1 33.8 34.1c12.7 0 20.5-4.2 25.4-8.8v-17.3h-24V474h28.4v23c-6 6.1-15.6 11.1-29.8 11.1-21.2-.2-38.3-15.6-38.3-38.3zM667.8 493l3.8-1.9c3.5 6.6 9.1 12.8 21 12.8 9.8 0 17.8-5.7 17.8-15.1 0-8.7-4.8-13.4-15.2-18.2l-6.9-3.2c-10.4-4.8-15.6-9.8-15.6-19.2 0-10.3 8.2-16.7 18.3-16.7 10 0 15.6 5.2 19.1 10.7l-3.5 2.3c-3.1-4.9-7.3-9.1-15.6-9.1-8.8 0-13.9 5-13.9 12.6 0 7.5 3.7 11.1 12.9 15.3l6.9 3.2c12.1 5.5 17.9 11.8 17.9 22.1 0 11.6-9.2 19.1-22 19.1-14.1.2-21.4-7.2-25-14.7zM761.7 432.5H777c20.2 0 29.5 11.5 29.5 27.7 0 15.7-9.3 27.6-29.5 27.6h-10.7V507h-4.5v-74.5zm14.8 51.4c18.7 0 25.3-10.5 25.3-23.7 0-13.3-6.6-23.8-25.3-23.8h-10.3v47.5h10.3zM826 432.5h43.5v3.9h-39v39.9h35v3.9h-35V503H871v3.9h-45v-74.4zM935.1 507.1h-5.4l-15.6-21.3c-2.7.7-5.9 1-9.3 1h-10.5v20.3h-4.5v-74.5h15c20.2 0 29.7 12.1 29.7 27.2 0 11-5.2 20.4-16 24.7l16.6 22.6zm-30.7-24.3c18.8 0 25.5-10.8 25.5-23.1s-6.7-23.2-25.5-23.2h-10.1v46.4h10.1zM948.2 493l3.8-1.9c3.5 6.6 9.1 12.8 21 12.8 9.8 0 17.8-5.7 17.8-15.1 0-8.7-4.8-13.4-15.2-18.2l-6.9-3.2c-10.4-4.8-15.6-9.8-15.6-19.2 0-10.3 8.2-16.7 18.3-16.7 10 0 15.6 5.2 19.1 10.7l-3.5 2.3c-3.1-4.9-7.3-9.1-15.6-9.1-8.8 0-13.9 5-13.9 12.6 0 7.5 3.7 11.1 12.9 15.3l6.9 3.2c12.1 5.5 17.9 11.8 17.9 22.1 0 11.6-9.2 19.1-22 19.1-14.2.2-21.4-7.2-25-14.7zM1009.2 469.8c0-22.7 17.1-38.1 38.1-38.1s38.1 15.5 38.1 38.1c0 22.7-17.1 38.1-38.1 38.1s-38.1-15.4-38.1-38.1zm71.7 0c0-19.5-14.4-34.1-33.5-34.1-19.2 0-33.5 14.6-33.5 34.1s14.4 34.1 33.5 34.1 33.5-14.6 33.5-34.1zM1111.4 446.1c-1.4-1.9-3.4-4.9-3.4-4.9s.3 3.4.3 5.6v60.3h-4.2v-75.4h1.3l47.7 61.8c1.4 1.9 3.4 4.9 3.4 4.9s-.3-3.4-.3-5.6v-60.3h4.2v75.4h-1.3l-47.7-61.8zM1207.7 431.7h1.3l30.2 75.4h-4.6l-5.7-14.5h-41.2l-5.7 14.5h-4.5l30.2-75.4zm19.6 56.9l-16.8-42.5c-1.1-2.6-2.2-6.8-2.2-6.8s-1.1 4.2-2.2 6.8l-16.9 42.5h38.1zM1256.5 432.5h4.5v70.6h35.8v3.9h-40.3v-74.5z"/></g><g class="st2"><path class="st3" d="M204.2 156.7l-67.2.8 3.3 73.3 32.3-1.6 17.8 21.2-45.7 40.9-53.1-35-4.5-59.1.7-50.2 11.9-52 30.8-17.5 33.1 5.6L191 121l90.8-1.9-13-41.6-25.7-35.3-37.9-26.8-56.4-16.6L99.7 1 61.1 17.4 21.7 51.9l-20.1 52-4.1 59.1v76.2l24.9 55.4 30.4 48.3 45.3 24.9 46.8 2.6 68.4-15.6 48.3-49.8 17.5-55.7-3.9-80.5-71-12.1zM161.4 312l43.9-8.2-23.4 33.5-20.5-25.3zm18.2 25l-46.4-20.1 27.1-4.8 19.3 24.9zm21.6-54.3l-8.5-29.7 26.3 30.3-12.1 18-5.7-18.6zm4.4 19.7L148.4 292l52-8.2 5.2 18.6zm14.9-18.6l38.3 20.4-51.8-1.5 13.5-18.9zm-.7-1.8l-27.1-31.2 55-7.1-27.9 38.3zm-27.9-32.4l-.8-46.5 56.5 39.4-55.7 7.1zm-.3-47.6l32.3-26.8 23.8 65.9-56.1-39.1zm33.4-27.5l49.1-4.4-24.9 71-24.2-66.6zm45.3-5.5l-45.7 4.5-18.2-15.2 63.9 10.7zm-65.8-10.8l18.5 16.1-31.1 26.3 7.8-26.4 4.8-16zm-1.6-.5l-4.6 15.4-57-14.5 61.6-.9zm-5 16.5l-7.7 26.8-49.6-41.3 57.3 14.5zm-8.2 27.8l-46.5 26 30.1-39.4 16.4 13.4zm-51.3-42.7l33.8 28.6-30.8 40.5-3-69.1zm4.8 70.2l46.5-26.7-17.1 25.2-29.4 1.5zm30.5-1.1l16.4-24.5.4 44.6-16.8-20.1zm17.5 23.1l8.9 31.2-53.1 8.2 44.2-39.4zm11.5 51.6l-42 7.8-14.5-18.2 56.5 10.4zm-57.6-10l14.1 17.9-14.9 3-11.9 2.2 12.7-23.1zm-14.2 23L99 306.5l44.6-13.4-12.7 23zm12.7-24.5l-23.8 7.1-26.4-39.8 50.2 32.7zm-24.9 7.4l-21.5 6.7-5.2-46.8 26.7 40.1zM96 304.6l-29-33.8 23.8-13 5.2 46.8zM-1 163.8L44.4 179l-26.1 40.7L-1 163.8zm20.1 81l-19.7-6 18.2-16.4 1.5 22.4zm77.3-171l-36.8-3 33.3-33.3 3.5 36.3zM83.8 30L98.6 4.7 93 35.2 83.8 30zm2.1 168.7l-32.7 50.8-3.6-38.5 36.3-12.3zm-36.7 11.1l-3-30.1 38.6 17.5-35.6 12.6zm36.4-13.7l-39-17.5 39.8-30.5-.8 48zm-29.3-26.4l-6.7-6 12.3-53.1L86 146.3l-29.7 23.4zm2.6-97.3l39 22.2L62 108.2l-3.1-35.8zm1.8 34.5L42.9 81.3l15-8.4 2.8 34zM49.2 92.4l-5.6 14.5-39.4-3 37.5-22.3 7.5 10.8zm1.1 1.6l10.5 14.9-31.4 34.5L50.3 94zm10 17.4l-11.8 51.2-19.2-17 31-34.2zm-5.2 59.1l-9.6 7.3-17.3-31 26.9 23.7zm-7 39.7l-28.6 10 25.6-39.8 3 29.8zm0 1.1l3.6 39.7-32.4-29.6 28.8-10.1zm11.7 31.4l29.6 14-23.1 12.9-40.8 22.7 34.3-49.6zm6.1 28.5l29.3 34.2-70.6-11.6 41.3-22.6zm24.4-15.4l-29.6-14.7 25.1-40.4 4.5 55.1zm-3.2-111l-24.5-35.3 35.6-13.7-11.1 49zm-26-72.5L96.8 75l1.6 18.7-37.3-21.4zm38.3 21.3L97.9 75l30.1 2.6-28.6 16zm-1.5-19.8l-3.7-36 34.9 38.6-31.2-2.6zm32.3 1.7L94.9 36.7l46.1-5.9-10.8 44.7zM96 35.2l29-19.3 17.1 9.7-1.1 4.1-27.5 3.3L96 35.2zm35.5 40.9l11.8-49.6 5.7 3.1 8 29 6.1 23.2-31.6-5.7zm19.1-45.7l22.5 13.9L158 57.9l-7.4-27.5zm7.8 28.6l43.5-39.1-37.5 61.4-6-22.3zm25.3-6.7L225 86.8l-40.1-3.3-4.9-25.3 3.7-5.9zm-4.8 7.4l4.8 23.8-18.5-1.5 13.7-22.3zm-13.4 23.8l18.2 1.1 6.7 33.1-24.9-34.2zm19.7 1.5l40.1 3-33.4 31.2-6.7-34.2zm7.8 34.6l33.8-31.2 52 29.7-85.8 1.5zm87-2.3l-51.7-29.7 39.8-8.9 11.9 38.6zm-12.7-39.7l-39.8 8.9 15.2-42.7 24.6 33.8zm-40.5 8.1l-12.7-41.2 27.5-1.1-14.8 42.3zm14.1-43.8l-27.1 1.5-7.8-25.7 34.9 24.2zm-15.6 43.8l-41-34.4 20.6-33.6 20.4 68zm-49.8-43.4l-10-16.4L203 17l-27.5 25.3zm27.2-26.4l-37.5 8.9L150.3.2l52.4 15.7zM149.6 1.4l24.6 41.7-30.6-18.3 6-23.4zm-7.1 23l-16.3-9.3L148 .6l-5.5 23.8zm4.1-24.5l-22 14.9L102 2.1l44.6-2.2zm-46.3 2.9l23.2 12.7-29 19.3 5.8-32zm-1.7 0l-16 26.4L63 17.7 98.6 2.8zm-36.4 16l30.3 17.4-33.9 33.9 3.6-51.3zm-1.5.4l-1.5 24.1-34.9 7.8 36.4-31.9zm-1.5 25.3l-1.5 26-33.8-18.2 35.3-7.8zM57 71.6l-14.9 8.6-18.2-26.4L57 71.6zM22.5 53.4L41 80.9 3.5 102.8l19-49.4zm20.4 55l-15.8 37-23.6-40.3 39.4 3.3zm-40.2-2.2l41.6 71.7-45.5-15.5 3.9-56.2zm-4 60.2L17.5 221l-18.8 16.4v-71zm.7 73.6l19.7 5.9 3 45L-.6 240zm19.3-17.1L51 252.8l-27.5 39.9-4.8-69.8zm5.6 72.4l71 11.5-41.6 34.6-29.4-46.1zm30.1 47.2l41.6-35 1.9 58.7-43.5-23.7zm43.1-35l32.7 9.8L99 365.2l-1.5-57.7zm1.9 59.2l31.6-48.3 12.6 50.5-44.2-2.2zm32.7-48.7l48.7 20.4-35.3 30.1-13.4-50.5zm14.8 50.5l34.9-29.4 29.4 15.2-64.3 14.2zm35.7-30.4l23.4-33.4 6.3 48.7-29.7-15.3zm30.5 15l-6-49.3 52.8 1.5-46.8 47.8zm8.1-70.4l27.6-38.3 11.6 59.1-39.2-20.8zm40.2 19.7l-11.5-58.7 28 6.4-16.5 52.3zm-11.5-59.8l24.5-70.2 3.7 76.2-28.2-6zM603.5 328l-32.4-62.4-22.3-49.8 38.3-26.4.4-.4 10.4-33.1 3.4-40.5-8.2-47.2-30.1-42-68-24.4-52-1.9-39.8 7.5L334 2.5 330.7 46l.8 79.9 5.6 80.2-4.8 60.6 10.8 49.4-9.7 55.4h89.9l-4.1-79.2 1.8-65.1 45.7 29.4 24.1 52.4 28.2 59.9.4.4h55.4l47.9 2.2.4-.4-19.6-43.1zm-1.5-.7l-58.7-17.5 27.5-42.8 31.2 60.3zm-1.1.7l-41.3 12.3-16-29 57.3 16.7zm-152-132.3l25.7-4.4 6.3 46.5-32-42.1zm31.2 43.1l-19-4.1-11.9-36.1 30.9 40.2zm-136 76.2l8.6-50.9 64.3 28.3-72.9 22.6zm73.2-21.5l-27.1 45.4-45-22.7 72.1-22.7zM352.1 263l-17.7 2.6 46.8-53.5-29.1 50.9zm17.3-208.1l43.5-12.3L424 81.3l-54.6-26.4zM424 82.4L398.7 108l-29.3-52L424 82.4zM367.5 54L333 45.6l68.4-36L367.5 54zm.3 2l29.7 52.4-64.3 16.7L367.8 56zm29.4 53.9l-20.1 43.5-43.5-27.1 63.6-16.4zm-13.4 96.2l-45-.7 38.3-49.8 6.7 50.5zm-.3 1.1l-34.6 40.2-10.4-40.9 45 .7zm1.5.4l34.2 18.6-65.1 35.6 30.9-54.2zm-6.7-52.4l31.2 18.6-24.5 31.6-6.7-50.2zm20-44.9l22.7 47.2-42.8-3.8 20.1-43.4zm.8-1.2l25.3-25.3-3 72.1-22.3-46.8zM486 58.6l-59.8 22.7L440 35.6l46 23zm-44.9-24.2l18.6-11.1 25.7 33.8-44.3-22.7zm111.1 136.8l-36.4-36.4 34.9-35.6 1.5 72zm-.4-71.7l30.1 37.5-28.6 34.2-1.5-71.7zm-32.7 149.3l50.2 17.1-36 19.3-14.2-36.4zm22.3 60.6l-36.8-7.4 27.9-15.2 8.9 22.6zm-69.5-147.1l27.8 23-24.1 4.5-3.7-27.5zm2.6 27.9l-25.3 4.5 21.6-32.3 3.7 27.8zm-2.2-29.4l41.6-24.5-13 48.3-28.6-23.8zm39.8 67.3l-29.4 10.8 18.2-50.9 11.2 40.1zm.3 1.4l4.8 17.9-33.5-7.4 28.7-10.5zm1.1-.7l32.4-11.5-27.5 29.4-4.9-17.9zm-.3-1.1L502 187.2l44.6 28.3-33.4 12.2zm2.2-91.8l36.4 36.4-49.8 12.6 13.4-49zm-16-45.3l50.5 7.4-34.9 35.7m-11.5-43.9l14.1-11.9 30.9 18.6-45-6.7zm14.9-13l35.3-30.4-3 50.2-32.3-19.8zM552.2 46l-34.9 30.5L489 59l63.2-13zm-59.1 11.1l48.3-20.8 11.5 8.5-59.8 12.3zm23.4 20.1L502 89.4h-3l-10.4-29 27.9 16.8zm-18.6 12.2L427.7 82l59.5-22.3 10.7 29.7zm.4 1.2l16 43.8-43.1 25.7-48.7-2.2 3.3-75.1 72.5 7.8zm-51.8 104.3l-25.1 4.5 1.1-39.4 24 34.9zm-23.3-36l46.8 2.2-22.3 33.1-24.5-35.3zm52.8 32l24.1-4.4-18.2 50.9-5.9-46.5zm39 56.9l-28.1 4.7-4.2-11.8 32.3 7.1zm2.3 1l-18.3 41-11.9-36.1 30.2-4.9zm.5 1l14.3 35.9-29.1 15.4-3.2-9.9 18-41.4zm23.6 61.1l-8.9 23-27.9-30.8 36.8 7.8zm.4 2.7l-.1 31.7-20.3 20.7 20.4-52.4zm-8.2-27.2l35.3-18.9-26.4 41.6-8.9-22.7zm36.1-21.5l-50.6-17.1 28.6-30.9 22 48zm-22-50.2l-45-28.6 49.4-12.3-4.4 40.9zm5.6-40.9l20.4 9.7-24.9 30.1 4.5-39.8zm32.9 14.8l-34.7 24.3 23.4-29 21.2-25.3-9.9 30zm-11.7-6.3l-20.1-9.3 41.8-15.8-21.7 25.1zm-19.7-10.7l27.9-33.4 13.8 17.5-41.7 15.9zm42-17.5L583.4 137l16.3-19.3-2.9 36.4zm-14.1-17.8l-29.8-37.5 46.8 17.1-17 20.4zm17-21.9l-47.2-17.1 39.4-27.9 7.8 45zm-48-18.1l3.5-50.3 36 22.4-39.5 27.9zm38.8-29.9l-34.8-21.5 7-17.1 27.8 38.6zM561.8 27l-7.3 17.2-55.8-39.8L561.8 27zM495.3 3.2l44.6 32.3-51.7 22.3 7.1-54.6zm-8.1 53.9l-26.4-34.2 33.1-19.7-6.7 53.9zm5.5-54.3l-32.7 19-16-20.4 48.7 1.4zm-49.4-.7l15.6 20.5-18.6 10.8 3-31.3zm-1.1-.7l-3 32L404.6 8l37.6-6.6zm-3.1 33.8l-14 45-11.1-38-9.7-32.7 34.8 25.7zm-26.6 6.3l-43.1 12.3 33.8-44.6 9.3 32.3zM401.3 8.4L354.5 33l-19-29.4 65.8 4.8zm-66.1-3.7l18.2 28.6-21.5 11.5 3.3-40.1zm-3.4 42l34.9 8.5-34.2 68-.7-76.5zm1.1 80.3l43.5 27.5-38.3 49.8-5.2-77.3zm5.2 82.8l9.7 38.6-14.2 16.4 4.5-55zm-4.5 57.3l17.9-3-8.2 48.7-9.7-45.7zm10.5 49.8l45 22.7-54.6 30.1 9.6-52.8zm-8.2 53.5l54.3-30.1 31.2 30.1h-85.5zm86.2-1.1l-30.9-30.1 26.7-44.6 4.2 74.7zm-4.1-77.7l-64.3-28.2 65.8-36.1-1.5 64.3zm1.5-66.5l-33.1-17.8 33.8-6.3-.7 24.1zm.8-25.3l-34.2 5.9 24.4-31.4 10.1 6.2-.3 19.3zm.3-20.8l-40.5-23.8 41.3 4-.8 19.8zm.8 21.9l24.9-4.4-25.3 28.2.4-23.8zm26-4l12.3 37.5-38.3-8.6 26-28.9zm-23.8 30.8l36.4 8.2 6 18.9-42.4-27.1zm37.9 8.2l18.9 4.4-12.7 14.4-6.2-18.8zm20 5.3L501 299l-32.7-42.4 13.2-15.4zm-11.4 19.6l32.2 41.4-10.2 6.2-22-47.6zm33 42.3l28.6 31.9-.6 1.8-38.1-27.5 10.1-6.2zm-10 7.5l13.7 10 10.8 42-24.5-52zm15.2 11.1L531 338l-11.1 28.6-11.6-44.9zm13.1 46.1l21.2-21.2 30.5 21.2h-51.7zm21.5-22.7v-32.3l30.1 53.9-30.1-21.6zm17.4-3.7l41.3-12.2-26.7 38.2-14.6-26zm15.7 26.8l27.1-39 18.6 41.2-45.7-2.2zM932.9 138.9l-9-50.9-29.4-49-40.8-27.5L805.8-.1 741.9 7l-49.1 29.7-29 54.6-7.8 45-1.1 60.2c0 .4 4.1 61.7 4.1 61.7l19.3 52 23.4 29.4 45.4 24.5 50.2 7.4 39.8-4.8 42.4-21.5 37.2-45 15.6-71 1.5-49.1-.9-41.2zm-1.5-.4l-31.6 11.2 23.4-59.5 8.2 48.3zM708.6 307l54.4-25.8 7.4 41.2-61.8-15.4zm60 16.2l-42.4 9.7-17.5-24.1 59.9 14.4zm-94-163.9l31.6 39-49.8-2.2 18.2-36.8zm-.4-1.8l-16.3-20.8 31.2-8.9-14.9 29.7zm1.1.7l14.5-29.7 16.3 68-30.8-38.3zm39.4-118.6L758.6 66l-37.2 23.1-6.7-49.5zm5.2 46.9l-17.8-34.2L713.6 40l6.3 46.5zm124.9-32.7L817 65.6l-10.1-23 37.9 11.2zm-37.6-12.3L827 28.9l17.6 23.6-37.4-11zm105.2 72.9l-13 33.8-4.5-56.5 17.5 22.7zm-17.1-23.8l27.1-1.8-9.7 24.5-17.4-22.7zm3 59.1L868.2 133l25.3-41.2 4.8 57.9zM839.9 234l-8.9 42.7-35.8 13.3 44.7-56zM789 296.8l-24.2-16 37-1.7-12.8 17.7zm42.8-18.6l20.4 14.9-56.1-2.2 35.7-12.7zm9.3-43.5l7.4 36.1-16.4 5.6 9-41.7zm-.8-3.3l-36.8 46.4-39.8 1.9-16.4-41.2-1.1-79.5 1.1-34.2 39-44.2 38.7 8.5 29.7 64.3-14.4 78zm-56.1-152l-27.9 4.5 4.1-17.1 23.8 12.6zM761.5 66L782 54.9l3.3 23.8L761.5 66zm23.1 14.5l-36.8 41.6 8.5-37.2 28.3-4.4zm-29.4 3.4L724 88.7l35-21.6-3.8 16.8zm-.4 1.5l-8.5 37.6-24.2-32.7 32.7-4.9zM730.7 192l14.1-30.5 1.1 73.2-15.2-42.7zm14.5 44.2l-19-19.3 4.1-22.6 14.9 41.9zm0-80.3l-10.8-30.4 11.5-.4-.7 30.8zm.4-31.9l-11.5.4-11.2-30.8 22.7 30.4zm-1.1 33.8L692 127.3l41.2-1.8 11.3 32.3zm0 1.5L730 190.5l-38.3-62 52.8 30.8zm-19.4 56.9l-16.7-16.7 20.8-6.7-4.1 23.4zm.8 2.2l20.1 20.1-27.1 20.4 7-40.5zm-6.7 42l25.6-19.7-14.5 24.5-11.1-4.8zm10.8 5.9l-20.8 34.1 9.2-39.3 11.6 5.2zm16.7-26.7l15.6 39.4-30.8-13.4 15.2-26zm92.7-123.5l-12.9-26.7 65 1.1-52.1 25.6zm53-24.8l-24.9 41.2-27.1-15.2 52-26zm-36.8 64.3l12.6 37.9-26 36 13.4-73.9zm-15.3-36.8l26.4 14.5-11.2 18.6-15.2-33.1zm27.5 15.2l29 16.3-40.1 1.9 11.1-18.2zM843 88.3l4-33.8 45.4 34.6-49.4-.8zm-1.2 0l-15.2-.3 19-32-3.8 32.3zm3-33.4l-19.3 32.3-8.2-20.6 27.5-11.7zM788 79.7l22.6-9.9L824 87.6l-36-7.9zm-.9-.8l12.7-24 10 13.7-22.7 10.3zm12.3-26.2L780.1 27l24.5 14.6-5.2 11.1zm-.7 1.1L786.4 78l-7.3-50.6 19.6 26.4zm-17.1 0l-19.7 10.4 15.8-37.8 3.9 27.4zm-21.1 11l-10.8-33.7 27.2-5.8-16.4 39.5zm-1 .4l-44-26.3 33.1-7.4 10.9 33.7zm-26.9 59.2l-41.3 1.9L720.4 91l12.2 33.4zm-40.9 5.9l37.2 60.9-20.9 6.9-16.3-67.8zm33.4 87.4l-7.1 39.4-9.6-56.1 16.7 16.7zm-18.6 88l-45.3-46.8 56.4 2.1-11.1 44.7zm24.5-39l30.9 13.4-54.3 25.7 23.4-39.1zm33.1 14.9l24.2 16-16.7 24.1-7.5-40.1zm29.7 10.6l29.4 29-50.5 1.1 21.1-30.1zm29.4 29.9l-13.7 25.3-36.5-23.8 50.2-1.5zM795 292l33.1 1.5-4.1 26.8-29-28.3zm34.6 1.5l23 1.1-27.5 25.2 4.5-26.3zm23.4 2.2l-7.8 33.8-19.7-8.6 27.5-25.2zm-20.1-18.2l51.3-17.1-29.7 32.3-21.6-15.2zm17.1-7.1l-8.2-37.6 43.1 26.4-34.9 11.2zm-8.2-38.6l27.1-36.8 16.4 63.2-43.5-26.4zm14.5-78.1l41.2-2.2-28.2 40.9-13-38.7zm42.8-2.2l32.7 28.2-61.3 13 28.6-41.2zm-4.5-110l27.9 46.1-27.9 1.5V41.5zm-1.1 47.2l-45.7-35L893.5 40v48.7zm-39.4-75.8l38.6 26L847 52.7l7.1-39.8zm-8.2 39l-17.8-23.4 24.6-16-6.8 39.4zm5.6-39.7l-24.2 15.2-20.1-26 44.3 10.8zm-45-10.1l19.7 26-19.7 12.2V2.1zm16.7 82.1l-23-30.5 5.4-11.5 17.6 42zm-17.8-43.8l-26.9-15.7 26.9-22.6v38.3zm-1.5-39l-26.4 22.3L744.1 8l59.8-6.6zm-28.3 22.7l-26 5.8L743 8.8l32.6 15.3zm-27.4 6.3l-32.7 7 26.4-28.6 6.3 21.6zm-9.3-20.1l-37.3 40.6-7.5-13.4 44.8-27.2zm-45.7 27.9l7.4 13.8-33.5 36 26.1-49.8zM701 53l19.3 36.4-54.6 1.5L701 53zm18.2 37.6l-29 35.3L665.7 92l53.5-1.4zm-54.3 2.6l24.2 33.4-31.6 8.5 7.4-41.9zm-7.8 44.9l16.8 20.4-17.9 35.4 1.1-55.8zm-1.1 59.1l50.2 2.2-46.1 57.2-4.1-59.4zm50.9 3.4l10.4 59.5-56.5-2.6 46.1-56.9zm-45.7 59.8l44.2 46.1-26.4 2.2-17.8-48.3zm18.4 49.6l26.6-2.4-4.5 30.1-22.1-27.7zm27.7-1.2l17.4 24.4-21.9 5.2 4.5-29.6zm-3.7 30.8l21.9-5.2 19.7 27.5-41.6-22.3zM727 334l43.1-10-22.7 38.6L727 334zm21.2 29.4l23-39 25.3 45.7-48.3-6.7zM773 325l35.7 23.4-11.3 21L773 325zm25.7 45l11.1-20.8 25.3 16.4-36.4 4.4zm11.9-21.9l13.4-25.3 11.9 42-25.3-16.7zm26 15.6l-11.5-41.3 19.7 8.2-8.2 33.1zm1.1 1.1l8.2-33.8 32 13.7-40.2 20.1zm8.6-34.9l8.2-34.2 23.4 47.6-31.6-13.4zm33 13.7l-24.2-49 59.9 5.6-35.7 43.4zm-23.7-50.1l30.8-33L915 299l-59.4-5.5zm60.2 4.8l-28.6-39 43.5-29-14.9 68zm-29-40.1L870.1 195l60.6 33.8-43.9 29.4zm44.2-30.5l-60.2-33.8 61.3-13-1.1 46.8zm-30.9-76.9l31.6-11.1.4 39-32-27.9zM744.5 159.3"/><g><path class="st3" d="M1322.6 226.6l-.8-68.7-.8-43.9-5.6-35.3 5.5-69.8-50.1-.1-38.1.8-24.3 47.2-14.9 27.5-19.3 43.9-20.5 38.6-21.2-36.4-28.3-42-9.6-33.4-23.1-44.6-42.4-10.8L985 12.2l-.8 31.2-.9 48.3 13.8 47.2L984 179v48.7l.4 46.5-1.1 53.1 1.8 43.8 45.3-1.1 42 1.1 2.2-63.1-2.2-33.8.8-72.9 52 85.9 55.4 1.1 29-49.8 22.3-40.9 1.5 39.4-3 76.9 3 56.1 54.3.4 33.1.7-1.2-72.5 3-72zm-4.2 68.7l-17.1-53.5L1321 228l-2.6 67.3zm-86.5 18.6l36.4-28.3 29.4 66-65.8-37.7zm64.6 39.3l-20.8 4.2-41.2-40.9 62 36.7zm-63.1-157.8l55-26 11.5 71.7-45.7 6.3-20.8-52zm19.3 51.6l-18.2-10.4-1.1-38.3 19.3 48.7zm-30.1-177.6l74 15.2-54.3 20.1-19.7-35.3zm17.8 34.5l-34.2-14.8 15.2-19.3 19 34.1zm62.5-4.4l-11.5 21.2 7.4-33.8 4.1 12.6zm-3.6-14.4l14.3-5.4-10 18.6-4.3-13.2zm-9.8 38.9l-45-18.9 53.5-19.7-8.5 38.6zm0 42.4l1.2-40.1 13.7 14.5-14.9 25.6zm22.7-36.5l8.2 27.3-30.5 10.2 22.3-37.5zm-23.1-4l-1.1 40.8-20.5-28.2 21.6-12.6zm-22.3 11.8l-23.1-31.2 45 18.2-21.9 13zm-1.1.4l-33.4 19.7 10-51.3 23.4 31.6zm.8 1.2l20.8 28.6-54.3-9.3 33.5-19.3zm32.6 103.3l-30.5 41.2-14.1-35 44.6-6.2zm-31.2 42.3l-36 27.1 21.9-62 14.1 34.9zm1.9.7l48.3 13.4-19.9 49.6-28.4-63zm0-1l30.5-41.6 17.8 54.6-48.3-13zm31.2-43.9l-11.2-69.1 31.2 54.6-20 14.5zm20.1-16.7l-31.6-55 31.2-10.4.4 65.4zm-.7-70.1l-7.5-25.4 7.1-12.3.4 37.7zm-15.7-14.3l-13.7-14.5 28.9-10.3-15.2 24.8zm14.9-26.1l-28.9 10.8 23.6-43.3 5.3 32.5zm-4.8-41.5l-2.6-30.8 7.4-25.7-4.8 56.5zm5.2-61.7l-8.2 27.9-2.1-27.3 10.3-.6zm-9 34.2l3 33.8-14.5 5.2 9.3-66.1 2.2 27.1zm-2.8-34l-9.8 71.5-26.2-72 36 .5zm-37.2.4l27.1 73-75.4-15.6 48.3-57.4zm-48.4 55.5l4.5-22.6 40.5-31.5-45 54.1zm11.1-55.8l33.7-.3-40 31.8 6.3-31.5zm-1.8 3.4l-6 29.3-15.2 11.5 21.2-40.8zm-6.3 30.8l-4.4 22.7-11.2-10.8 15.6-11.9zm-16.4 13.1l11.1 10.8-23.9 14.1 12.8-24.9zm9.3 13.7l-13.4 17.1-9.6-4.5 23-12.6zm-23.7 13.5l9.6 4.3-26.8 34.2 17.2-38.5zm10.7 5.1l35 14.9-63.9 21.9 28.9-36.8zm35.7 16l-10.1 52-55-29.7 65.1-22.3zm-11.5 52.4l-47.6 13.8-6.7-42.8 54.3 29zm-55.4-28.3l6.6 42-26.4-3.9 19.8-38.1zM987 326.9l26.4-7.8 6.7 10-33.1-2.2zm32.7 3.4l-13.7 16-20.5-18.3 34.2 2.3zm30.8-266.5L1033.4 24l27.1 13.8-10 26zm10.8-25.3l31.2 16.3-40.9 10.1 9.7-26.4zm-11.9 26l-27.1-8.9 10-31.2 17.1 40.1zm.3 1.4l-39 26.1 11.5-35.3 27.5 9.2zm1.2.7l52 22.5-44.2 63.2-47.9-58.7 40.1-27zm6.3 85.7l-59.1-13.8 11.9-43.8 47.2 57.6zm-.4 1.1l-37.5 13-20.4-26.4 57.9 13.4zm-14.4 45.3L986.3 179l32.7-11.1 23.4 30.8zm-22.3-31.2l37.9-13.4-14.1 44.6-23.8-31.2zm24.4 32.9l6.4 14.3-35.3 26.8 28.9-41.1zm.8.2l25.3-.7L1052 214l-6.7-13.4zm25.3 50.7l-56.2-7.6 36.8-27.9 19.4 35.5zm-57.6-8.4l-10-23 39.4-18.6-29.4 41.6zm41.2 61.3l-68.3-30.1 26.7-29 41.6 59.1zm0 1.2l-40.1 12.2-27.5-42 67.6 29.8zm-39.7 13.4l39.4-12.4-32.7 22.4-6.7-10zm40.1-11.6l-14.5 36.8-17.8-14.1 32.3-22.7zm1.1.4l4.8 18.6-27.5 39 22.7-57.6zm1.1-1.5l16.3 2.6-11.8 16.3-4.5-18.9zm-1.1-1.9l-41.3-58.3 56.5 28.6-15.2 29.7zm-39.4-59l54.9 7.3-.2 20.5-54.7-27.8zm36.1-30.2l19.3-14.5-.4 49.4-18.9-34.9zm-7.4-15.9l13.7-43.8 13 43.5-26.7.3zm82.1-31.2l-23.4 46.1-16.3-22.7 39.7-23.4zm-40.5 22.3l-26.4-36 66.9 12.3-40.5 23.7zm42.4-23.5l22.3 3-45.3 42.7 23-45.7zm23.7 3.4h1.1l10.8 74.3-59.8-29.4 47.9-44.9zm2.3 0l26 3.7-15.6 68.4-10.4-72.1zm-1.1-1.5l-24.6-2.9 3.3-33.1 21.3 36zm-25.7-3l-66.9-12.6 70.2-21.5-3.3 34.1zm3-35.3l-71 21.9 43.5-62.5 27.5 40.6zm-28.3-42.7L1052.4 66l41.6-10.4 8.9 32zm-10-33.8L1062 37.4l9.3-25.2 21.6 41.6zm-32-17.1l-28-14 37.3-10.9-9.3 24.9zm8.2-26.1l-32.3 10-6.7-19.6 39 9.6zm-33.6 10.1l-3.9 1.1-19.7-4.1L1029 1.4l6.5 19.3zm-5.1 2.2l-43.8 18.6 24.1-23.1 19.7 4.5zm-3.3-21.5l-16.7 16-22.3-4.9 39-11.1zm-40.8 11.9l23 4.8-23.8 22.7.8-27.5zm44.9 10.4l-10 31.6-35.7-11.9 45.7-19.7zm-45.7 20.8l35.7 11.9-11.6 35.6-24.2-46.8v-.7zm0 2.9l23.4 45.3-24.3-1.3.9-44zm-.8 45l24.5 1.5-11.9 42.7-12.6-44.2zm13.1 47.9l20.5 26.4-32.7 11.5 12.2-37.9zm44.9 59.5l-40.5 18.9-16.8-38.7 57.3 19.8zm-41.6 19.3l10.4 23.4-26.3-15.3-.1-45.3 16 37.2zm10.8 25.3l-26.4 28.2-.4-43.8 26.8 15.6zm-26.4 32l27.1 41.6-28.2 8.6 1.1-50.2zm-1.1 52.4l20.8 18.6-18.9 21.6-1.9-40.2zM987 370l18.9-21.9 23.1 20.8-42 1.1zm43.1-1.6l-23.5-21.1 14.6-16.8 18.3 14.5-9.4 23.4zm1.5.5l13.7-19 24.9 20.1-38.6-1.1zm14.4-19.8l15-21.1 10 40.9-25-19.8zm25.3 17.2l-9.7-39.8 11.9-16.7-2.2 56.5zm2.3-59.1l-16.8-2.2 14.5-28.2 2.3 30.4zm-.8-108.9l-12.3-42 24.9 34.6-12.6 7.4zm13.4-6.3l15.6 21.5-28.2-14.5 12.6-7zm-12.2 8.6l29.3 15.3 20.5 66.5-49.8-81.8zm30.8 15.6l59.5 29.3-38.3 40.1-21.2-69.4zm22.3 69.8l37.9-39.8 14.1 40.9-52-1.1zm53.1.4l-14.1-40.5 41.6-7.1-27.5 47.6zm-14.1-42l16-69.1 26 62.4-42 6.7zm43.1-7.4l-26.4-62.8 49.1 21.2-22.7 41.6zm-25.7-63.6l47.2-13.8 1.1 34.6-48.3-20.8zm49.5 20.9l-1.1-34.6 55 8.9-53.9 25.7zm1.5 43.7l18.6 10.5-21.5 61.3 2.9-71.8zm-3 77.4l43.1 42.4-40.2 10.8-2.9-53.2zm6.7 53.5l37.2-10 10.8 10.4-48-.4zm49 0l-10.4-10.4 18.6-4-8.2 14.4zm1.2.4l9.3-16 20.8 16.7-30.1-.7zm10-17.1l20-50.6 1.2 67.7-21.2-17.1zM1066.8 262.5"/></g></g></g><path class="st3" d="M19.4 6.4l1.6.9.9-5.1zM22.1 8.3l7.4 8L31.7 7zM25.8 7l6.1-.8.1-.5-3.5-2.1-5.6 3.7 2.9-.3M35.5 13.1l-1.8-6.5-.9-.5-2.6 10.7 6.5 1.2-1.2-4.9M34.7 7.2l1.4 5.2L39 9.8zM36.3 13.2l1.2 4.3 7.3-11.9zM42.3 18.5l8.1.6-8.5-7.1-.7 1zM38 18.1l3.5.3-.9-4.4zM38.2 19l4.6 6.4-1.2-6.2zM42.4 19.3l1.4 7 6.8-6.4zM51.6 20.1l-7 6.5 17.9-.3zM52.6 19.7l10.6 6.1-2.4-7.9zM55.3 10.2L52.2 19l8.2-1.8zM54.6 9.9l-5.5.2 2.5 8.3 3-8.5M47.3 4.4l1.5 4.9L54 9zM42.3 11.3l8.5 7.2-4.3-14.1zM38.1 5.8L40 8.9l5.3-4.8zM34.8.2l2.9 4.9 7.4-1.8zM33 5.2l5.9 3.6L34.1.7zM29.2 3.1l3 1.8L33.3.4zM24.1.4l4.2 2.4L32.4 0zM23 .8l-1.1 6.3 5.7-3.8zM14.9 3.8L18.7 6 21.8.9zM4.3 49.1l5.4-8.6-9.5-3.1 4.1 11.7M.4 53.9L4.1 55l-.3-4.2zM14.2 15.6l7.5.6-.8-7.4zM11.6 47.8l.7 7.9 6.6-10.3zM10.9 41l.6 6.1 7.1-2.6zM11.1 40.3l8.1 3.6.2-10zM11.6 36.9l1.2 1.1 6.4-5.1-5-7.4zM13.7 16.6l.7 7.3 7.3-2.7zM10.2 18.3l3.3 4.8-.5-6.4zM1.8 23.1l8 .6 1.1-2.9-1.4-2.2zM11.5 21.6L7.6 31l5.9-6.5zM7.1 32.8l3.8 3.4 2.4-10.3zM7.4 34.3l3.1 5.4 1.7-1.2zM10.1 41.5l-5 7.8 5.6-2zM4.9 50.1l6.6 6-.8-8zM14.7 24.7l5 7.3L22 21.9zM15 16.5l7.1 4-.3-3.5zM22.6 17l.3 3.6 5.4-3.1zM22.5 16.3l6.3.5-7-7.7zM14.4 4.4L13.7 15l6.9-7zM13.5 4.7l-7 6.2 6.8-1.5zM6.2 11.7l6.7 3.6.3-5.1zM6.3 12.7l3.4 4.9 2.8-1.6zM5.2 12.4L1.3 22.5 9 18zM1.3 23.9l4.9 8.3 3.2-7.6zM.1 36.4l9.5 3.3-8.7-15zM0 39.1v14l3.7-3.2zM.4 54.7l4.3 9.7-.6-8.6zM4.6 51l1 14.5 5.7-8.3zM37.2 70.8l4.2 5.2 4.7-6.8zM31.2 71.8l8.8 3.9-3.6-4.8zM46 63.9l1.1 3.7 2.4-3.5-5.1-5.8 1.6 5.6M35.3 66.1l11.1 2-1-3.6zM47.6 68.3l10.2.3-7.6-4zM43.4 57.3l-9.1 8.1 10.9-1.6zM33.9 66.6l2.8 3.5 8-1.5zM32.8 70.8l3-.6-2.8-3.4-2.4 4.4 2.2-.4M23.4 69.4l6.3 1.9 2.4-4.5zM22.2 59.5l5.2 7.8 4.7-1.4zM21.3 59.6l1 9.3 4.3-1.4zM15.7 61.3l5.8 6.8-1-9.4zM13.7 55.2l-7 10.2 13.1-7.3zM6.4 66.4L21 68.8l-6-7.1zM14.2 54.4l6.1 3-.9-11.3zM6.1 67.2l6.2 9.7 8.8-7.3zM12.9 77.5l9.1 5-.4-12.3zM22.5 69.9l.3 12 6.4-9.9zM23.1 82.8l9.3.5-2.6-10.6-6.7 10.1zM30.4 72.4L33.2 83l7.4-6.3zM41.4 77.1l-7 5.9 12.9-2.8zM41.9 76.5l6.1 3.1-1.3-10zM47.4 69l1.3 10.4 9.8-10zM23.1 82.8l9.2.5-2.6-10.6zM44.3 56.9l5.7 6.5 5.8-8zM43.8 46.4l.1 9.8 11.7-1.5zM44 45.6l11.8 8.3-5-13.9zM51.5 39.6l5.2 14.1 5.2-15zM47.8 36.1l3.4 2.8 8.3-.8zM46.7 36.1l-1 3.3-1.6 5.1 6.2-5.2zM34.1 36l10.8 2.7.9-2.9zM33 36.5l10.1 8.4 1.6-5.4zM39.5 43l-6 7.7 9.2-5.1zM31.8 36.5l.6 14.4 6.4-8.4zM42.3 46.6l-8.7 5 5.5-.3zM39.8 51.6l3.2 3.9v-8.6zM50.7 63.9l8.1 4.3-2.4-12.3zM57.2 55.4l2.3 12 3.4-10.7zM57.2 54.7l5.8 1.2-.8-15.7z"/><g><path class="st3" d="M235.4 5.7l3.4 7.8 1.9-5.1zM241.4 8.8l-2 5.3 8.2-2zM232.7 12.2l5.4 1.8-3.4-8zM232.5 13l-2.3 7 7.8-5.2zM230.1 21l10.5 12.9 9.7-13.8-11.4-5zM227.2 31l12.4 2.9-9.9-12.1zM240 14.8l10.3 4.4-1.8-6.5zM241.7 8.1l6.1 3.2-4.2-8.2zM235.5 4.9l5.5 2.8 1.8-4.9zM234.5.3l1.3 3.8 6.2-1.9zM230.5 3.6l4 .8.5-.1-1.2-3.8zM229.8 4.2l-4.3 4.2 7.9-3.4zM225.7 2.5l3.9.9 2.9-2.8zM224.4 3.1l-.1 5.3 4.6-4.4-4.5-.9M224.7 9.5l7.2 2.5 2.1-6.4zM224.4 10.2l5 9.8 2.4-7.3zM224.1 20.3l4.8.2-4.7-9zM224.2 21l2.5 8.8 2.4-8.5zM225.8 73.9l5.6.3-1.2-1.7zM224.7 74.6l3.9 3.4 2.6-3zM227.7 32l4.1 5.2 7.5-2.6zM225 40.4l11.2 3.9-4.7-6.1zM232.3 37.9l4.9 6.4 2.9-9.1zM228.3 49.8l2 4.6 5.9-8.3zM224.5 61.9l14.4 6.4-8.8-12.4zM225 63l5.6 8.6 8.3-2.5zM226.9 32.2l-2.5 7.6 6.6-2.3zM224.5 41.1l3.4 8 8.4-3.9zM224.2 51.2l5.2 3-2.1-4.6-3.1-7.3zM224.2 52.2l.1 8.8 5.3-5.7zM224.2 63.4l-.2 10.2 5.8-1.8zM224 75l.4 7.9 3.7-4.2zM228.7 79.2l-3.8 4.3 8.3-.2zM229.2 78.6L234 83l2-4.8-3.8-3zM235 83.3l7.5.2-4.8-3.9zM237.4 45.8l-5.4 7.6 6.6-5zM238 45.5l1.2 2.4 3.3-2.5zM231.2 54.9l11.7 1.6-4-7.3zM231 72.3l1.2 1.8 5.8-4zM232.8 74.7l3.5 2.8 2.9-7.3zM239.9 70.5l-4.1 10.3 5-7zM240.6 69.6l.8 3.4 2.1-2.9zM231.4 56.3l8.5 12.1 3.2-6.2zM232.5 55.9l10.7 5.5v-4.1zM239.5 48.7l3.8 6.8v-9.7zM240.6 35.9l-2.7 8.8 5.4-.1zM238.1 79l4.9 3.9-2-8zM241.6 74l1.7 7.1.4-10.1zM240.6 68.8l3.1.4-.4-5.6zM241.7 36.6l2.3 7.8 2.3-1.4zM247.5 43.3l3.3 4.5 4.8-9.3zM241.6 35.1l5.4 7.5 8.5-4.9zM256.8 37.9l-4.5 8.9 8.8-8.3zM262.8 38.7l2.1 14.7 3.2-14zM257 37.1l4.8.6-4.2-7zM242.3 34.4l13.9 2.7.7-7.1zM250.9 20.6l-9.3 13.3 15.1-4.7zM244.6 45l5 2.5-2.8-3.8zM244.8 46l9.8 16-4-13.1zM251.5 49.3l4.5 14.8 8.2-8.5zM256.8 64.5l10.8.2-2.9-8.5zM265.4 55.8l2.9 8.4 5.7-9.9zM268.8 40.4L265.4 55l8.8-1.5zM251.6 48.5l12.8 6.3-2.4-16.1zM274.1 20.5l-5.9 7.6 13-4.5zM268 29l11.6 6.3 2.2-11.1zM267.5 29.6l1.4 9 9.9-2.9zM262.8 37.8l5.3.8-1.3-8.4zM269.3 39.8l5.6 13.2 4.7-8.8zM269.8 39.2l9.9 4.3-.2-7.1zM278.4 15.9l4.1 7.3 11.3-4.2zM274.6 19.9l6.8 2.9-3.8-6.8zM295.2 20.4l-1 5 1.7-3.1zM295.6 19.2l.8 2.2 1.6-3.1zM283.6 23.6l9.3 3.9 1.8-8zM298.6 18.9l-4.7 8.6 5.8-2.2zM298.5 9.1l.3 3.9.7-7.2zM298 2.4l.3 4.6 1.4-4.7zM297.7 9.9l-.3-3.9-1.7 12.3 2.7-1-.7-7.4M289.5 2.3l5.5 15 2-14.9zM278.4 15.1l16.2 3.3-5.8-15.7zM279.1 9.8l-.8 4.1 8.1-9.7zM280.6 2.4l-1.2 6.3 7.9-6.3zM279.4 4.7l-3.5 6.6 2.5-1.9zM275.4 12.6l2 2 .8-4.1zM274.9 13.3l-2.3 4.5 4.4-2.5zM272.3 18.9l1.5.7 2.2-2.8zM271.7 19.4l-2.9 6.6 4.5-5.8zM282.5 24.6l-2.1 10.5 6.9-4.1zM281 35.6l11 1.9-4.2-5.8zM280.7 44.3l4.5 11.4 10-1.4-2.6-15.7zM280.8 53.3l3.4 2-3.6-9zM293.6 29l-.2 7.5 2.7-4.8zM298.2 29.9l-4.5 7.4 6.1-2zM288.5 31.3l4 5.5.2-8zM283.5 24.5l4.5 6.2 4.3-2.6zM285.5 56.5l2.9 7.2 6.3-8.5zM285 57.3l-4.5 12.6 7.4-5.5zM293.7 40.1l2.2 13.9 4-2.9zM293.5 38.3l6.5 11.3-.1-13.5zM298.7 29l1.1 3.8v-5.7zM293.9 28.3l2.6 2.7 2.9-4.7zM280.3 36.3l.2 7.2 11.1-5.3zM280.8 54.2l-.6 14.2 4.3-12.1zM296.1 54.8l3.4 10.6.5-13.3zM280.5 71l13.9 8-6.2-14zM282.2 72.9l7.8 7.8 4-.8zM289.1 65l5.9 13.3 4.2-10.4zM289 64.2l10.2 2.8-3.8-11.5zM280.2 72.1l.6 11 8.4-2.2zM283.3 83.3l8.4.1-1.9-1.8zM293.3 83.4l5.6.1-3.9-3.1zM295.4 79.7l4.3 3.4-.3-13.5zM290.7 81.4l1.8 1.7 1.4-2.4z"/></g><g><path class="st3" d="M183.9 9.8l1.9 4.5 5.5-2.3zM184.1 9.1l7.2 2.1-3.4-4.6zM173.7 14.7l4.5 2.4-.6-4.5zM191.9 19.5l10.2.2-9.4-7.1zM188.3 19.5h2.8l.7-5.9zM186.1 15l1.6 4 3.7-6.3zM180 17.7l6.7 1.5-2.5-3.3zM181.8 12.7l-2.3 4.4 4.2-1.9zM178.3 6.7l3.4 4.5.9-1.9zM177.5 6.9l1.4 9.7 2.4-4.6zM176.7 6.7l-3 7 3.7-1.9zM170.7 7l2.2 6.7 3.3-7.9zM163.3 8.7l8.9 5.3-2.2-6.8zM188.6 6.3l3.5 4.6 1.4-7.8zM184.2.5l3.9 5.1 4.8-3zM183.6 1v7.4l3.8-2.3zM182.2 11.9l3.9 5.2-3-7.1zM177.4 5.3l5.4 3.2V.8zM170.1 1.7l6.6 3.1 5.2-4.4zM169.3 2.2l1.3 4 4.9-1.1zM168.5 2.2l-5.1 5.6 6.3-1.4zM158.1 8.3l1.4 2.6 7-7.7zM182.3 65.6l10.6.4-3.9-2.8zM180.5 66.5l-4.4 6.2 10.4-.2zM176.6 73.5l7.3 4.8 2.8-5.1zM181.4 66.4l5.7 5.6.8-5.3zM188.8 66.7l-.9 5 5.3-4.8zM188.1 72.6l3.8 1.7 1.5-6.6zM170.5 82.1l10.1 1.4-5.3-9.6zM176.5 74.4l4.8 8.7 2.2-4.1zM184.2 79.5l-2.2 4 7.1-.9zM184.6 78.7l5 3.3-2.4-8.2zM187.9 73.4l2.3 8 1.5-6.4zM192.5 75.3l-1.7 6.9 8.1-4.1zM192.7 74.5l6.3 2.7-4.7-9.5zM194.8 67l5.1 10.3 7.6-9.1zM195 66.2l12.4 1.2-5.9-8.1zM202 58.7l6 8.2 3.2-14.3zM198.2 44.6l3.5 13.4 9.3-6.3zM198.7 43.9l12.7 7.1.2-9.9zM205.1 34.1l6.5 5.7-.1-8zM173.8 63.4l-13.6 6.4M151 60l3.5 9.6 5.3-.4zM155 70.4l4.3 5.4.9-5.9zM160.9 70.6l-.8 5.7 4.2-1zM161.8 69.4l13 3.3-1.5-8.7zM161.7 70.3l3.5 4.8 8.4-1.9zM174.7 63.8l4.6 3 2.5-3.4zM164 58.8l1.9.9 2.5-4.3zM163.5 59.4l-1.7 7.1 3.8-6.1zM166.6 60l6.2 2.6-3.1-7.8zM150.9 58.8l9.6 9.9 2.3-9.4zM166.3 60.7l-4.8 7.9 11.1-5.2zM174.1 64.3l1.4 7.9 3.3-4.8zM160.7 77l7.8 4.2-3.7-5.2zM165.7 75.8l4.2 5.9 4.6-8zM149.6 44.1l10.4.4-6.6-8.1zM153.8 35.6l6.2 7.7-3.3-13.6zM166.4 43.4l2.9 8.1-.2-13.9zM165.4 48.9l3.4 3.5-2.7-7.5zM158 29.7l7.9 12.8 3-6.5zM161.5 45.2l3.2 3.1.7-4.4zM165.2 49.9l-1.4 8.1 5.4-4.1zM157.9 30.9l3.2 13.5 4.2-1.4zM161.4 46.1l1.8 10.5 1.4-7.3zM149.6 31.8l-.2 10.9 3.5-6.9zM149.4 44.8l.9 12.6 9.7-12.1zM150.7 58l12 .5-2.2-12.6zM150 30.9l3.2 4.1 2.9-5.8zM162.8 9.2l1.4 10.3 7.7-4.8zM159.9 11.7l3.3 6.2-1.2-8.5zM173 15.3l-.7 3.2 5.2-.9zM172.1 19.3l-1.6 7.3 7.2-8.2zM172.1 15.5l-6.3 3.9 5.7-.8zM164.6 20.4l4.9 6.7 1.8-7.7zM167.3 28.5l1.9 5.3.1-5.4zM165.2 22.5l1.8 5.2h2zM158.2 28.9l10.6 6.1-2.3-6.5zM163.7 20.9l-6 7.2 8.5-.4zM157.6 8.9l-4.8 9.2 6.1-6.6zM159.3 12.2l-7.4 7.9 11.4-.3zM151.8 20.9l5.1 7 6-7.3zM151.3 21.5l-1.5 8.6 6.4-1.8zM209.7 21.2L205 33.3l6.4-2.3zM203.7 21.4l.9 10.8 2.5-6.4zM204 20.5l3.4 4.4 1.9-4.7zM197.7 29.8l6.2 3.5-1-11.9zM190.5 53.9l-8.9 11.2 7.1-2.7zM191.2 54.3l-1.7 7.8 3.1-1zM188.3 20.3l2.6 5.5 10.7-5.3zM191.6 26.4l5.5 3.1 5.1-8.4zM194.6 36.1l-2.7 14.7 5.2-7.1zM191.6 27.3l2.9 6.4 2.2-3.6zM197.4 30.5l-2.2 3.5 7.7-.3zM189.9 62.9l4.3 3 5.9-6.4zM191.7 53.2l1.7 7.6 7.1-2.2zM191.7 52.3l9.1 5.5-3.4-13.2zM195 34.9l2.7 8 5.8-8.5zM204.4 34.5l-6 8.6 12.8-2.7zM203.6 10.1v9.6l5.6-.3zM193.3 12l9.5 7.4V9.2zM194.3 3.1l-1.4 8.2 9.4-2.8zM195 66.2l12.4 1.2-5.9-8.1z"/><path class="st3" d="M202 58.7l6 8.2 3.2-14.3zM198.2 44.6l3.5 13.4 9.3-6.3zM198.7 43.9l12.7 7.1.2-9.9zM205.1 34.1l6.5 5.7-.1-8z"/></g><g><path class="st3" d="M84.7 12.3L96 17.7l-2.3-8zM76.4 10l7 1.7 6.9-9zM100.2 8.2l-2.9 9.6 12.6-4.8zM100.8 7.5l8.6 4.5-5-6.6zM98.4 18.2l14.4 1.6-2.2-6.2zM101 .9l-.6 5.9 3.6-2zM92.6 1.7l7 5.1.6-6.4zM92.4 2.6L96.7 17l2.8-9.2zM91.6 2.4l-6.9 9.1L93.5 9zM76.8.8l3.9 6.1 9.6-5.1zM76.4 1.6l-.6 7.9L80 7.2zM116.9 29.9l7.6-7.7-11-1.6zM115.1 20l8.4 1.2-5.8-3.4zM118.3 17.1l6.7 4.1.6-10.3zM111.9 13.2l5.7 3.6 7-6.2zM123 8.3l-8.5 3.6 10.6-2.1zM113.6 19.8h.4l3-2.5-5.4-3.2zM126.2 21.8l9.8 3.5-1.6-9.4zM126.4 10.6l-.7 10.5 8.2-5.8zM126.6 9.8l6.7 4.1-5.3-7.3zM115 1.6l10.9 7.8 1.5-3.4zM112.8.9l-1.5 11.6 10.9-4.8zM105.1 5l5.5 7.1L112 1zM101.5.3l3.2 4 6.4-3.7zM117.6 30.4l7.7 7.6-.4-15.1zM125.7 23.1l.3 14.8 6-7zM107.6 37.2l.8 5.4 4.6-.9zM107.8 36.3l5.9 4.9 2.7-10zM113.9 43.3l-3.7 10.3 5.9-2.2zM117.1 51.9l.9 3.4 5.2-5.6zM114.6 42.8l2.2 8.3 6.9-2.5zM117.3 31.1l-2.8 10.3 10.4-2.7zM108.5 43.3l1.2 9.3 3.6-10.2zM118.5 55.9l10.5 3.6-4.6-10zM114.9 42.1l9.4 6 .9-8.5zM126 39.6l-.9 7.8 4.9-5.9zM134.8 37l-3.9 4.7-4.2 5.1 6.3-4.4zM126.7 39.1l3.8 1.7 4.2-4.7zM132.5 31.5l-5.5 6.6 8.2-3.1zM126.5 22.7l6 7.6 3.4-4.1zM123.9 70l12.4 3.7-6.6-12.8zM124.1 70.9l3.2 5.9 8.4-2.5zM118.5 56.7l2.9 7.5 7.4-4zM115.5 68.2l7.2 1.5-1.8-4.4zM110.9 54.2l6.3 1.4-.9-3.4zM110.1 54.8l.8 2 4.8-.8zM111.1 57.6l2.4 7.3 3.7-8.3zM113.9 65.9l.6 1.9 6.1-3.3-2.9-7.3zM115.4 69l5.6 6.1 1.7-4.5zM122.9 72.4l-3.7 9.4 3.7-3.7zM121.6 64.9l1.8 4.5 5.2-8.2-7 3.7M106.8 58.1l6.3 8.2-3.7-11.3zM108 60.9l4 8.5 1.8-1.1zM112.6 70l7.8 5.7-6.1-6.8zM112.8 71.1l4 8.5-1.8-6.9zM116 73.5l2.2 8.7 2.2-5.6zM119.1 83h10.3l-6-4.2zM123.7 78l5.8 4.2-5.8-10.4zM102.5 44.4l6.4 8.4-1.2-9.3zM77.6 46.2l9.4.1-1.4-10.6zM105 52.9l3.5.7-5.6-7.4zM80.4 60.1l-1.8 10.8 15.5-4.8zM79.2 71.6l9.4 4.8 5.7-9.5zM85.2 50l-8.5 9.7 3.2-.4zM84.6 13l6.1 10.8 5.3-5.3zM83.7 13l-7.4 14.8L90 24.2zM76.5 28.5l9.1 5.7 4.3-9.1zM77.3 46.9l2.2 8.5 7.1-8.3zM87.6 47.3l-6.4 11.3 13.6-7.5zM86.3 35.5l1.4 10.3 5-6.5zM86.4 34.4l8.9.8-4.7-9.8zM91 24.6l4.6 9.5.6-14.7zM106.9 37.3l-4.2 6.3 4.9-.9zM96.3 36.9l-.2 7.8 5-.9zM96.7 36.1l5.1 7.3 4.6-6.8zM75.7 10.7l.2 16L83 12.5zM76 29.1l1.1 16.3 8.1-10.5zM77 49l-.8 10.2 2.6-3.1zM76.2 60.6l1.8 8.8 1.6-9.3zM78.4 72.1l-2 11.1 11.5-6.3zM77.4 83.6h17.8l-6.5-6.2zM89.3 76.8l6.4 6.2-.9-15.5zM81 59.6l13.8 6 .3-13.8zM88.6 46.9l6.5 3.5.2-4.7zM93.4 39.7l-5 6.4 6.9-1.2.1-4zM87.6 35.4l7.8 4.6.1-3.9zM96.1 45.6l-.1 4.5 4.8-5.3zM96.3 50.9l7.8 1.7-2.5-7.6zM97.7 52l7.8 5-1.1-3.5zM105.3 53.7l1.2 3.4 2.3-2.6zM135.7 34.7l-3.1-3.8 3.7-4.4zM130.9 83.4l6.2-8.9 4.2 9.4zM127.4 77.3l9.4-2.8-6.1 8.7z"/></g><g><path class="st4" d="M5.3 97.8h.2l7.6 10.1 7.6-10.1h.2V115h-1v-13.4-1.5s-.5.8-.9 1.4l-6 7.8-5.9-7.8c-.4-.5-.9-1.4-.9-1.4V115h-1V97.8zM31.8 97.8h.3L39 115h-1l-1.3-3.3h-9.4L26 115h-1l6.8-17.2zm4.5 13l-3.8-9.7-.5-1.5s-.2.9-.5 1.5l-3.8 9.7h8.6zM44.9 107.3l7.3-9.3h1.1l-6.6 8.4L54 115h-1.3l-6.6-7.8-2.2 2.7v5.1h-1V98h1v9c0 .7-.1 1.5-.1 1.9.4-.5.9-1.3 1.1-1.6zM57.8 98h9.9v.9h-8.9v9.1h7.9v.9h-7.9v5.2H68v.9H57.8V98zM82.3 98.9h-5.4V98h11.8v.9h-5.4v16h-1v-16zM92.3 98h1v10h9.9V98h1v17h-1v-6.1h-9.9v6.1h-1V98zM109.7 98h1v17h-1V98zM117.8 101.1c-.3-.4-.8-1.1-.8-1.1s.1.8.1 1.3V115h-.9V97.8h.3l10.8 14c.3.4.8 1.1.8 1.1s-.1-.8-.1-1.3V98h.9v17.1h-.3l-10.8-14zM133.2 106.5c0-5.2 3.9-8.7 8.7-8.7 2.3 0 4.4.7 5.8 2.1l-.7.7c-1.2-1.3-3-1.9-5.1-1.9-4.4 0-7.7 3.3-7.7 7.7s3.3 7.7 7.7 7.7c2.9 0 4.7-.9 5.8-2v-3.9h-5.5v-.9h6.5v5.2c-1.4 1.4-3.5 2.5-6.8 2.5-4.8.2-8.7-3.4-8.7-8.5zM151.8 111.8l.9-.4c.8 1.5 2.1 2.9 4.8 2.9 2.2 0 4-1.3 4-3.4 0-2-1.1-3-3.5-4.1l-1.6-.7c-2.4-1.1-3.5-2.2-3.5-4.4 0-2.3 1.9-3.8 4.2-3.8 2.3 0 3.5 1.2 4.3 2.4l-.8.5c-.7-1.1-1.7-2.1-3.5-2.1-2 0-3.2 1.1-3.2 2.9 0 1.7.8 2.5 2.9 3.5l1.6.7c2.7 1.2 4.1 2.7 4.1 5 0 2.6-2.1 4.3-5 4.3-3.3.1-4.9-1.6-5.7-3.3zM173.1 98h3.5c4.6 0 6.7 2.6 6.7 6.3 0 3.6-2.1 6.3-6.7 6.3h-2.4v4.4h-1V98zm3.4 11.7c4.3 0 5.8-2.4 5.8-5.4 0-3-1.5-5.4-5.8-5.4h-2.3v10.8h2.3zM187.7 98h9.9v.9h-8.9v9.1h7.9v.9h-7.9v5.2h9.2v.9h-10.2V98zM212.5 115h-1.2l-3.5-4.8c-.6.1-1.3.2-2.1.2h-2.4v4.6h-1V98h3.4c4.6 0 6.7 2.7 6.7 6.2 0 2.5-1.2 4.6-3.6 5.6l3.7 5.2zm-7-5.5c4.3 0 5.8-2.5 5.8-5.3s-1.5-5.3-5.8-5.3h-2.3v10.5h2.3zM215.5 111.8l.9-.4c.8 1.5 2.1 2.9 4.8 2.9 2.2 0 4-1.3 4-3.4 0-2-1.1-3-3.5-4.1l-1.6-.7c-2.4-1.1-3.5-2.2-3.5-4.4 0-2.3 1.9-3.8 4.2-3.8 2.3 0 3.5 1.2 4.3 2.4l-.8.5c-.7-1.1-1.7-2.1-3.5-2.1-2 0-3.2 1.1-3.2 2.9 0 1.7.8 2.5 2.9 3.5l1.6.7c2.7 1.2 4.1 2.7 4.1 5 0 2.6-2.1 4.3-5 4.3-3.3.1-4.9-1.6-5.7-3.3zM229.4 106.5c0-5.2 3.9-8.7 8.7-8.7 4.8 0 8.7 3.5 8.7 8.7 0 5.2-3.9 8.7-8.7 8.7-4.9 0-8.7-3.6-8.7-8.7zm16.2 0c0-4.4-3.3-7.7-7.6-7.7-4.4 0-7.6 3.3-7.6 7.7s3.3 7.7 7.6 7.7c4.4 0 7.6-3.3 7.6-7.7zM252.6 101.1c-.3-.4-.8-1.1-.8-1.1s.1.8.1 1.3V115h-.9V97.8h.3l10.8 14c.3.4.8 1.1.8 1.1s-.1-.8-.1-1.3V98h.9v17.1h-.3l-10.8-14zM274.5 97.8h.3l6.9 17.1h-1l-1.3-3.3H270l-1.3 3.3h-1l6.8-17.1zm4.4 13l-3.8-9.7-.5-1.5s-.2.9-.5 1.5l-3.8 9.7h8.6zM285.5 98h1v16h8.1v.9h-9.2V98z"/></g></svg>