<?xml version="1.0" encoding="utf-8"?>
<!-- Generator: Adobe Illustrator 19.1.0, SVG Export Plug-In . SVG Version: 6.00 Build 0)  -->
<svg version="1.1" id="Layer_1" xmlns="http://www.w3.org/2000/svg" xmlns:xlink="http://www.w3.org/1999/xlink" x="0px" y="0px"
	 viewBox="0 0 300 115.2" style="enable-background:new 0 0 300 115.2;" xml:space="preserve">
<style type="text/css">
	.st0{display:none;fill:#FFFFFF;}
	.st1{display:none;}
	.st2{display:inline;}
	.st3{fill:#EC1C24;}
	.st4{fill:#231F20;}
</style>
<rect x="-90" y="-96.6" class="st0" width="1500" height="700"/>
<g class="st1">
	<g class="st2">
		<path class="st3" d="M23.3,431.7h1.1L58,475.9l33.6-44.3h1.1v75.4h-4.3v-59.2c0-2.6,0.2-6.5,0.2-6.5s-2.1,3.6-4.1,6.1L58.5,482
			h-1.2l-25.9-34.4c-1.9-2.4-4.1-6.1-4.1-6.1s0.2,3.8,0.2,6.5v59.2h-4.3V431.7z"/>
		<path class="st3" d="M140.1,431.7h1.3l30.2,75.4h-4.6l-5.7-14.5h-41.2l-5.7,14.5H110L140.1,431.7z M159.7,488.6L143,446.1
			c-1.1-2.6-2.2-6.8-2.2-6.8s-1.1,4.2-2.2,6.8l-16.9,42.5H159.7z"/>
		<path class="st3" d="M197.4,473.3l32.2-40.8h5l-28.9,37l31.8,37.5H232l-29-34.3l-9.5,11.7c0-0.1,0,22.6,0,22.6h-4.5v-74.5h4.5
			v39.8c0,3.2-0.3,6.8-0.4,8.4C194.5,478.1,196.6,474.5,197.4,473.3z"/>
		<path class="st3" d="M254.3,432.5h43.5v3.9h-39v39.9h35v3.9h-35v22.8h40.5v3.9h-45V432.5z"/>
		<path class="st3" d="M362,436.5h-23.7v-3.9h51.8v3.9h-23.7v70.6H362V436.5z"/>
		<path class="st3" d="M406.2,432.5h4.5v43.8h43.4v-43.8h4.5v74.5h-4.5v-26.6h-43.4v26.6h-4.5V432.5z"/>
		<path class="st3" d="M482.7,432.5h4.5v74.5h-4.5V432.5z"/>
		<path class="st3" d="M518.5,446.1c-1.4-1.9-3.4-4.9-3.4-4.9s0.3,3.4,0.3,5.6v60.3h-4.2v-75.4h1.3l47.7,61.8
			c1.4,1.9,3.4,4.9,3.4,4.9s-0.3-3.4-0.3-5.6v-60.3h4.2v75.4h-1.3L518.5,446.1z"/>
		<path class="st3" d="M586.2,469.8c0-22.7,17.2-38.1,38.5-38.1c10.1,0,19.4,3,25.4,9.3l-3,3.1c-5.4-5.6-13-8.3-22.5-8.3
			c-19.4,0-33.9,14.6-33.9,34.1c0,19.5,14.5,34.1,33.8,34.1c12.7,0,20.5-4.2,25.4-8.8v-17.3h-24v-3.9h28.4v23
			c-6,6.1-15.6,11.1-29.8,11.1C603.3,507.9,586.2,492.5,586.2,469.8z"/>
		<path class="st3" d="M667.8,493l3.8-1.9c3.5,6.6,9.1,12.8,21,12.8c9.8,0,17.8-5.7,17.8-15.1c0-8.7-4.8-13.4-15.2-18.2l-6.9-3.2
			c-10.4-4.8-15.6-9.8-15.6-19.2c0-10.3,8.2-16.7,18.3-16.7c10,0,15.6,5.2,19.1,10.7l-3.5,2.3c-3.1-4.9-7.3-9.1-15.6-9.1
			c-8.8,0-13.9,5-13.9,12.6c0,7.5,3.7,11.1,12.9,15.3l6.9,3.2c12.1,5.5,17.9,11.8,17.9,22.1c0,11.6-9.2,19.1-22,19.1
			C678.7,507.9,671.4,500.5,667.8,493z"/>
		<path class="st3" d="M761.7,432.5H777c20.2,0,29.5,11.5,29.5,27.7c0,15.7-9.3,27.6-29.5,27.6h-10.7v19.2h-4.5V432.5z M776.5,483.9
			c18.7,0,25.3-10.5,25.3-23.7c0-13.3-6.6-23.8-25.3-23.8h-10.3v47.5H776.5z"/>
		<path class="st3" d="M826,432.5h43.5v3.9h-39v39.9h35v3.9h-35v22.8H871v3.9h-45V432.5z"/>
		<path class="st3" d="M935.1,507.1h-5.4l-15.6-21.3c-2.7,0.7-5.9,1-9.3,1h-10.5v20.3h-4.5v-74.5h15c20.2,0,29.7,12.1,29.7,27.2
			c0,11-5.2,20.4-16,24.7L935.1,507.1z M904.4,482.8c18.8,0,25.5-10.8,25.5-23.1c0-12.3-6.7-23.2-25.5-23.2h-10.1v46.4H904.4z"/>
		<path class="st3" d="M948.2,493l3.8-1.9c3.5,6.6,9.1,12.8,21,12.8c9.8,0,17.8-5.7,17.8-15.1c0-8.7-4.8-13.4-15.2-18.2l-6.9-3.2
			c-10.4-4.8-15.6-9.8-15.6-19.2c0-10.3,8.2-16.7,18.3-16.7c10,0,15.6,5.2,19.1,10.7l-3.5,2.3c-3.1-4.9-7.3-9.1-15.6-9.1
			c-8.8,0-13.9,5-13.9,12.6c0,7.5,3.7,11.1,12.9,15.3l6.9,3.2c12.1,5.5,17.9,11.8,17.9,22.1c0,11.6-9.2,19.1-22,19.1
			C959,507.9,951.8,500.5,948.2,493z"/>
		<path class="st3" d="M1009.2,469.8c0-22.7,17.1-38.1,38.1-38.1c21,0,38.1,15.5,38.1,38.1c0,22.7-17.1,38.1-38.1,38.1
			C1026.3,507.9,1009.2,492.5,1009.2,469.8z M1080.9,469.8c0-19.5-14.4-34.1-33.5-34.1c-19.2,0-33.5,14.6-33.5,34.1
			c0,19.5,14.4,34.1,33.5,34.1C1066.5,503.9,1080.9,489.3,1080.9,469.8z"/>
		<path class="st3" d="M1111.4,446.1c-1.4-1.9-3.4-4.9-3.4-4.9s0.3,3.4,0.3,5.6v60.3h-4.2v-75.4h1.3l47.7,61.8
			c1.4,1.9,3.4,4.9,3.4,4.9s-0.3-3.4-0.3-5.6v-60.3h4.2v75.4h-1.3L1111.4,446.1z"/>
		<path class="st3" d="M1207.7,431.7h1.3l30.2,75.4h-4.6l-5.7-14.5h-41.2l-5.7,14.5h-4.5L1207.7,431.7z M1227.3,488.6l-16.8-42.5
			c-1.1-2.6-2.2-6.8-2.2-6.8s-1.1,4.2-2.2,6.8l-16.9,42.5H1227.3z"/>
		<path class="st3" d="M1256.5,432.5h4.5v70.6h35.8v3.9h-40.3V432.5z"/>
	</g>
	<g class="st2">
		<g>
			<g>
				<path class="st3" d="M204.2,156.7l-67.2,0.8l3.3,73.3l32.3-1.6l17.8,21.2l-45.7,40.9l-53.1-35l-4.5-59.1l0.7-50.2l11.9-52
					l30.8-17.5l33.1,5.6l27.4,37.9l90.8-1.9l-13-41.6l-25.7-35.3l-37.9-26.8L148.8-1.2L99.7,1L61.1,17.4L21.7,51.9l-20.1,52
					L-2.5,163v76.2l24.9,55.4l30.4,48.3l45.3,24.9l46.8,2.6l68.4-15.6l48.3-49.8l17.5-55.7l-3.9-80.5L204.2,156.7z M161.4,312
					l43.9-8.2l-23.4,33.5L161.4,312z M179.6,337l-46.4-20.1l27.1-4.8L179.6,337z M201.2,282.7l-8.5-29.7l26.3,30.3l-12.1,18
					L201.2,282.7z M205.6,302.4L148.4,292l52-8.2L205.6,302.4z M220.5,283.8l38.3,20.4l-51.8-1.5L220.5,283.8z M219.8,282
					l-27.1-31.2l55-7.1L219.8,282z M191.9,249.6l-0.8-46.5l56.5,39.4L191.9,249.6z M191.6,202l32.3-26.8l23.8,65.9L191.6,202z
					 M225,174.5l49.1-4.4l-24.9,71L225,174.5z M270.3,169l-45.7,4.5l-18.2-15.2L270.3,169z M204.5,158.2l18.5,16.1l-31.1,26.3
					l7.8-26.4L204.5,158.2z M202.9,157.7l-4.6,15.4l-57-14.5L202.9,157.7z M197.9,174.2l-7.7,26.8l-49.6-41.3L197.9,174.2z
					 M189.7,202l-46.5,26l30.1-39.4L189.7,202z M138.4,159.3l33.8,28.6l-30.8,40.5L138.4,159.3z M143.2,229.5l46.5-26.7l-17.1,25.2
					L143.2,229.5z M173.7,228.4l16.4-24.5l0.4,44.6L173.7,228.4z M191.2,251.5l8.9,31.2l-53.1,8.2L191.2,251.5z M202.7,303.1
					l-42,7.8l-14.5-18.2L202.7,303.1z M145.1,293.1l14.1,17.9l-14.9,3l-11.9,2.2L145.1,293.1z M130.9,316.1L99,306.5l44.6-13.4
					L130.9,316.1z M143.6,291.6l-23.8,7.1l-26.4-39.8L143.6,291.6z M118.7,299l-21.5,6.7l-5.2-46.8L118.7,299z M96,304.6l-29-33.8
					l23.8-13L96,304.6z M-1,163.8L44.4,179l-26.1,40.7L-1,163.8z M19.1,244.8l-19.7-6l18.2-16.4L19.1,244.8z M96.4,73.8l-36.8-3
					l33.3-33.3L96.4,73.8z M83.8,30L98.6,4.7l-5.6,30.5L83.8,30z M85.9,198.7l-32.7,50.8L49.6,211L85.9,198.7z M49.2,209.8l-3-30.1
					l38.6,17.5L49.2,209.8z M85.6,196.1l-39-17.5l39.8-30.5L85.6,196.1z M56.3,169.7l-6.7-6l12.3-53.1L86,146.3L56.3,169.7z
					 M58.9,72.4l39,22.2L62,108.2L58.9,72.4z M60.7,106.9L42.9,81.3l15-8.4L60.7,106.9z M49.2,92.4l-5.6,14.5l-39.4-3l37.5-22.3
					L49.2,92.4z M50.3,94l10.5,14.9l-31.4,34.5L50.3,94z M60.3,111.4l-11.8,51.2l-19.2-17L60.3,111.4z M55.1,170.5l-9.6,7.3
					l-17.3-31L55.1,170.5z M48.1,210.2l-28.6,10l25.6-39.8L48.1,210.2z M48.1,211.3l3.6,39.7l-32.4-29.6L48.1,211.3z M59.8,242.7
					l29.6,14l-23.1,12.9l-40.8,22.7L59.8,242.7z M65.9,271.2l29.3,34.2l-70.6-11.6L65.9,271.2z M90.3,255.8l-29.6-14.7l25.1-40.4
					L90.3,255.8z M87.1,144.8l-24.5-35.3l35.6-13.7L87.1,144.8z M61.1,72.3L96.8,75l1.6,18.7L61.1,72.3z M99.4,93.6L97.9,75
					l30.1,2.6L99.4,93.6z M97.9,73.8l-3.7-36l34.9,38.6L97.9,73.8z M130.2,75.5L94.9,36.7l46.1-5.9L130.2,75.5z M96,35.2l29-19.3
					l17.1,9.7l-1.1,4.1l-27.5,3.3L96,35.2z M131.5,76.1l11.8-49.6l5.7,3.1l8,29l6.1,23.2L131.5,76.1z M150.6,30.4l22.5,13.9
					l-15.1,13.6L150.6,30.4z M158.4,59l43.5-39.1l-37.5,61.4L158.4,59z M183.7,52.3L225,86.8l-40.1-3.3L180,58.2L183.7,52.3z
					 M178.9,59.7l4.8,23.8L165.2,82L178.9,59.7z M165.5,83.5l18.2,1.1l6.7,33.1L165.5,83.5z M185.2,85l40.1,3l-33.4,31.2L185.2,85z
					 M193,119.6l33.8-31.2l52,29.7L193,119.6z M280,117.3l-51.7-29.7l39.8-8.9L280,117.3z M267.3,77.6l-39.8,8.9l15.2-42.7
					L267.3,77.6z M226.8,85.7l-12.7-41.2l27.5-1.1L226.8,85.7z M240.9,41.9l-27.1,1.5L206,17.7L240.9,41.9z M225.3,85.7l-41-34.4
					l20.6-33.6L225.3,85.7z M175.5,42.3l-10-16.4L203,17L175.5,42.3z M202.7,15.9l-37.5,8.9L150.3,0.2L202.7,15.9z M149.6,1.4
					l24.6,41.7l-30.6-18.3L149.6,1.4z M142.5,24.4l-16.3-9.3L148,0.6L142.5,24.4z M146.6-0.1l-22,14.9L102,2.1L146.6-0.1z
					 M100.3,2.8l23.2,12.7l-29,19.3L100.3,2.8z M98.6,2.8l-16,26.4L63,17.7L98.6,2.8z M62.2,18.8l30.3,17.4L58.6,70.1L62.2,18.8z
					 M60.7,19.2l-1.5,24.1l-34.9,7.8L60.7,19.2z M59.2,44.5l-1.5,26L23.9,52.3L59.2,44.5z M57,71.6l-14.9,8.6L23.9,53.8L57,71.6z
					 M22.5,53.4L41,80.9L3.5,102.8L22.5,53.4z M42.9,108.4l-15.8,37L3.5,105.1L42.9,108.4z M2.7,106.2l41.6,71.7l-45.5-15.5
					L2.7,106.2z M-1.3,166.4L17.5,221l-18.8,16.4V166.4z M-0.6,240l19.7,5.9l3,45L-0.6,240z M18.7,222.9L51,252.8l-27.5,39.9
					L18.7,222.9z M24.3,295.3l71,11.5l-41.6,34.6L24.3,295.3z M54.4,342.5l41.6-35l1.9,58.7L54.4,342.5z M97.5,307.5l32.7,9.8
					L99,365.2L97.5,307.5z M99.4,366.7l31.6-48.3l12.6,50.5L99.4,366.7z M132.1,318l48.7,20.4l-35.3,30.1L132.1,318z M146.9,368.5
					l34.9-29.4l29.4,15.2L146.9,368.5z M182.6,338.1l23.4-33.4l6.3,48.7L182.6,338.1z M213.1,353.1l-6-49.3l52.8,1.5L213.1,353.1z
					 M221.2,282.7l27.6-38.3l11.6,59.1L221.2,282.7z M261.4,302.4l-11.5-58.7l28,6.4L261.4,302.4z M249.9,242.6l24.5-70.2l3.7,76.2
					L249.9,242.6z"/>
			</g>
		</g>
		<path class="st3" d="M603.5,328l-32.4-62.4l-22.3-49.8l38.3-26.4l0.4-0.4l10.4-33.1l3.4-40.5l-8.2-47.2l-30.1-42L495,1.8l-52-1.9
			l-39.8,7.5L334,2.5L330.7,46l0.8,79.9l5.6,80.2l-4.8,60.6l10.8,49.4l-9.7,55.4h89.9l-4.1-79.2l1.8-65.1l45.7,29.4l24.1,52.4
			l28.2,59.9l0.4,0.4h55.4l47.9,2.2l0.4-0.4L603.5,328z M602,327.3l-58.7-17.5l27.5-42.8L602,327.3z M600.9,328l-41.3,12.3l-16-29
			L600.9,328z M448.9,195.7l25.7-4.4l6.3,46.5L448.9,195.7z M480.1,238.8l-19-4.1l-11.9-36.1L480.1,238.8z M344.1,315l8.6-50.9
			l64.3,28.3L344.1,315z M417.3,293.5l-27.1,45.4l-45-22.7L417.3,293.5z M352.1,263l-17.7,2.6l46.8-53.5L352.1,263z M369.4,54.9
			l43.5-12.3L424,81.3L369.4,54.9z M424,82.4L398.7,108l-29.3-52L424,82.4z M367.5,54l-34.5-8.4l68.4-36L367.5,54z M367.8,56
			l29.7,52.4l-64.3,16.7L367.8,56z M397.2,109.9l-20.1,43.5l-43.5-27.1L397.2,109.9z M383.8,206.1l-45-0.7l38.3-49.8L383.8,206.1z
			 M383.5,207.2l-34.6,40.2l-10.4-40.9L383.5,207.2z M385,207.6l34.2,18.6l-65.1,35.6L385,207.6z M378.3,155.2l31.2,18.6L385,205.4
			L378.3,155.2z M398.3,110.3l22.7,47.2l-42.8-3.8L398.3,110.3z M399.1,109.1l25.3-25.3l-3,72.1L399.1,109.1z M486,58.6l-59.8,22.7
			L440,35.6L486,58.6z M441.1,34.4l18.6-11.1l25.7,33.8L441.1,34.4z M552.2,171.2l-36.4-36.4l34.9-35.6L552.2,171.2z M551.8,99.5
			l30.1,37.5l-28.6,34.2L551.8,99.5z M519.1,248.8l50.2,17.1l-36,19.3L519.1,248.8z M541.4,309.4l-36.8-7.4l27.9-15.2L541.4,309.4z
			 M471.9,162.3l27.8,23l-24.1,4.5L471.9,162.3z M474.5,190.2l-25.3,4.5l21.6-32.3L474.5,190.2z M472.3,160.8l41.6-24.5l-13,48.3
			L472.3,160.8z M512.1,228.1l-29.4,10.8l18.2-50.9L512.1,228.1z M512.4,229.5l4.8,17.9l-33.5-7.4L512.4,229.5z M513.5,228.8
			l32.4-11.5l-27.5,29.4L513.5,228.8z M513.2,227.7L502,187.2l44.6,28.3L513.2,227.7z M515.4,135.9l36.4,36.4L502,184.9L515.4,135.9
			z M499.4,90.6l50.5,7.4L515,133.7 M503.5,89.8l14.1-11.9l30.9,18.6L503.5,89.8z M518.4,76.8l35.3-30.4l-3,50.2L518.4,76.8z
			 M552.2,46l-34.9,30.5L489,59L552.2,46z M493.1,57.1l48.3-20.8l11.5,8.5L493.1,57.1z M516.5,77.2L502,89.4h-3l-10.4-29L516.5,77.2
			z M497.9,89.4L427.7,82l59.5-22.3L497.9,89.4z M498.3,90.6l16,43.8l-43.1,25.7l-48.7-2.2l3.3-75.1L498.3,90.6z M446.5,194.9
			l-25.1,4.5l1.1-39.4L446.5,194.9z M423.2,158.9l46.8,2.2l-22.3,33.1L423.2,158.9z M476,190.9l24.1-4.4l-18.2,50.9L476,190.9z
			 M515,247.8l-28.1,4.7l-4.2-11.8L515,247.8z M517.3,248.8L499,289.8l-11.9-36.1L517.3,248.8z M517.8,249.8l14.3,35.9L503,301.1
			l-3.2-9.9L517.8,249.8z M541.4,310.9l-8.9,23l-27.9-30.8L541.4,310.9z M541.8,313.6l-0.1,31.7L521.4,366L541.8,313.6z
			 M533.6,286.4l35.3-18.9l-26.4,41.6L533.6,286.4z M569.7,264.9l-50.6-17.1l28.6-30.9L569.7,264.9z M547.7,214.7l-45-28.6
			l49.4-12.3L547.7,214.7z M553.3,173.8l20.4,9.7l-24.9,30.1L553.3,173.8z M586.2,188.6l-34.7,24.3l23.4-29l21.2-25.3L586.2,188.6z
			 M574.5,182.3l-20.1-9.3l41.8-15.8L574.5,182.3z M554.8,171.6l27.9-33.4l13.8,17.5L554.8,171.6z M596.8,154.1L583.4,137l16.3-19.3
			L596.8,154.1z M582.7,136.3l-29.8-37.5l46.8,17.1L582.7,136.3z M599.7,114.4l-47.2-17.1l39.4-27.9L599.7,114.4z M551.7,96.3
			l3.5-50.3l36,22.4L551.7,96.3z M590.5,66.4l-34.8-21.5l7-17.1L590.5,66.4z M561.8,27l-7.3,17.2L498.7,4.4L561.8,27z M495.3,3.2
			l44.6,32.3l-51.7,22.3L495.3,3.2z M487.2,57.1l-26.4-34.2l33.1-19.7L487.2,57.1z M492.7,2.8l-32.7,19L444,1.4L492.7,2.8z
			 M443.3,2.1l15.6,20.5l-18.6,10.8L443.3,2.1z M442.2,1.4l-3,32L404.6,8L442.2,1.4z M439.1,35.2l-14,45L414,42.2l-9.7-32.7
			L439.1,35.2z M412.5,41.5l-43.1,12.3l33.8-44.6L412.5,41.5z M401.3,8.4L354.5,33L335.5,3.6L401.3,8.4z M335.2,4.7l18.2,28.6
			l-21.5,11.5L335.2,4.7z M331.8,46.7l34.9,8.5l-34.2,68L331.8,46.7z M332.9,127l43.5,27.5l-38.3,49.8L332.9,127z M338.1,209.8
			l9.7,38.6l-14.2,16.4L338.1,209.8z M333.6,267.1l17.9-3l-8.2,48.7L333.6,267.1z M344.1,316.9l45,22.7l-54.6,30.1L344.1,316.9z
			 M335.9,370.4l54.3-30.1l31.2,30.1H335.9z M422.1,369.3l-30.9-30.1l26.7-44.6L422.1,369.3z M418,291.6l-64.3-28.2l65.8-36.1
			L418,291.6z M419.5,225.1l-33.1-17.8l33.8-6.3L419.5,225.1z M420.3,199.8l-34.2,5.9l24.4-31.4l10.1,6.2L420.3,199.8z M420.6,179
			l-40.5-23.8l41.3,4L420.6,179z M421.4,200.9l24.9-4.4L421,224.7L421.4,200.9z M447.4,196.9l12.3,37.5l-38.3-8.6L447.4,196.9z
			 M423.6,227.7l36.4,8.2l6,18.9L423.6,227.7z M461.5,235.9l18.9,4.4l-12.7,14.4L461.5,235.9z M481.5,241.2l19.5,57.8l-32.7-42.4
			L481.5,241.2z M470.1,260.8l32.2,41.4l-10.2,6.2L470.1,260.8z M503.1,303.1l28.6,31.9l-0.6,1.8l-38.1-27.5L503.1,303.1z
			 M493.1,310.6l13.7,10l10.8,42L493.1,310.6z M508.3,321.7l22.7,16.3l-11.1,28.6L508.3,321.7z M521.4,367.8l21.2-21.2l30.5,21.2
			H521.4z M542.9,345.1v-32.3l30.1,53.9L542.9,345.1z M560.3,341.4l41.3-12.2l-26.7,38.2L560.3,341.4z M576,368.2l27.1-39l18.6,41.2
			L576,368.2z"/>
		<g>
			<path class="st3" d="M932.9,138.9l-9-50.9l-29.4-49l-40.8-27.5L805.8-0.1L741.9,7l-49.1,29.7l-29,54.6l-7.8,45l-1.1,60.2
				c0,0.4,4.1,61.7,4.1,61.7l19.3,52l23.4,29.4l45.4,24.5l50.2,7.4l39.8-4.8l42.4-21.5l37.2-45l15.6-71l1.5-49.1L932.9,138.9z
				 M931.4,138.5l-31.6,11.2l23.4-59.5L931.4,138.5z M708.6,307l54.4-25.8l7.4,41.2L708.6,307z M768.6,323.2l-42.4,9.7l-17.5-24.1
				L768.6,323.2z M674.6,159.3l31.6,39l-49.8-2.2L674.6,159.3z M674.2,157.5l-16.3-20.8l31.2-8.9L674.2,157.5z M675.3,158.2
				l14.5-29.7l16.3,68L675.3,158.2z M714.7,39.6L758.6,66l-37.2,23.1L714.7,39.6z M719.9,86.5l-17.8-34.2L713.6,40L719.9,86.5z
				 M844.8,53.8L817,65.6l-10.1-23L844.8,53.8z M807.2,41.5L827,28.9l17.6,23.6L807.2,41.5z M912.4,114.4l-13,33.8l-4.5-56.5
				L912.4,114.4z M895.3,90.6l27.1-1.8l-9.7,24.5L895.3,90.6z M898.3,149.7l-30.1-16.7l25.3-41.2L898.3,149.7z M839.9,234l-8.9,42.7
				L795.2,290L839.9,234z M789,296.8l-24.2-16l37-1.7L789,296.8z M831.8,278.2l20.4,14.9l-56.1-2.2L831.8,278.2z M841.1,234.7
				l7.4,36.1l-16.4,5.6L841.1,234.7z M840.3,231.4l-36.8,46.4l-39.8,1.9l-16.4-41.2l-1.1-79.5l1.1-34.2l39-44.2l38.7,8.5l29.7,64.3
				L840.3,231.4z M784.2,79.4l-27.9,4.5l4.1-17.1L784.2,79.4z M761.5,66L782,54.9l3.3,23.8L761.5,66z M784.6,80.5l-36.8,41.6
				l8.5-37.2L784.6,80.5z M755.2,83.9L724,88.7L759,67.1L755.2,83.9z M754.8,85.4l-8.5,37.6l-24.2-32.7L754.8,85.4z M730.7,192
				l14.1-30.5l1.1,73.2L730.7,192z M745.2,236.2l-19-19.3l4.1-22.6L745.2,236.2z M745.2,155.9l-10.8-30.4l11.5-0.4L745.2,155.9z
				 M745.6,124l-11.5,0.4l-11.2-30.8L745.6,124z M744.5,157.8L692,127.3l41.2-1.8L744.5,157.8z M744.5,159.3L730,190.5l-38.3-62
				L744.5,159.3z M725.1,216.2l-16.7-16.7l20.8-6.7L725.1,216.2z M725.9,218.4l20.1,20.1l-27.1,20.4L725.9,218.4z M719.2,260.4
				l25.6-19.7l-14.5,24.5L719.2,260.4z M730,266.3l-20.8,34.1l9.2-39.3L730,266.3z M746.7,239.6l15.6,39.4l-30.8-13.4L746.7,239.6z
				 M839.4,116.1l-12.9-26.7l65,1.1L839.4,116.1z M892.4,91.3l-24.9,41.2l-27.1-15.2L892.4,91.3z M855.6,155.6l12.6,37.9l-26,36
				L855.6,155.6z M840.3,118.8l26.4,14.5l-11.2,18.6L840.3,118.8z M867.8,134l29,16.3l-40.1,1.9L867.8,134z M843,88.3l4-33.8
				l45.4,34.6L843,88.3z M841.8,88.3L826.6,88l19-32L841.8,88.3z M844.8,54.9l-19.3,32.3l-8.2-20.6L844.8,54.9z M788,79.7l22.6-9.9
				L824,87.6L788,79.7z M787.1,78.9l12.7-24l10,13.7L787.1,78.9z M799.4,52.7l-19.3-25.7l24.5,14.6L799.4,52.7z M798.7,53.8
				l-12.3,24.2l-7.3-50.6L798.7,53.8z M781.6,53.8l-19.7,10.4l15.8-37.8L781.6,53.8z M760.5,64.8l-10.8-33.7l27.2-5.8L760.5,64.8z
				 M759.5,65.2l-44-26.3l33.1-7.4L759.5,65.2z M732.6,124.4l-41.3,1.9l29.1-35.3L732.6,124.4z M691.7,130.3l37.2,60.9l-20.9,6.9
				L691.7,130.3z M725.1,217.7l-7.1,39.4l-9.6-56.1L725.1,217.7z M706.5,305.7l-45.3-46.8l56.4,2.1L706.5,305.7z M731,266.7
				l30.9,13.4l-54.3,25.7L731,266.7z M764.1,281.6l24.2,16l-16.7,24.1L764.1,281.6z M793.8,292.2l29.4,29l-50.5,1.1L793.8,292.2z
				 M823.2,322.1l-13.7,25.3L773,323.6L823.2,322.1z M795,292l33.1,1.5l-4.1,26.8L795,292z M829.6,293.5l23,1.1l-27.5,25.2
				L829.6,293.5z M853,295.7l-7.8,33.8l-19.7-8.6L853,295.7z M832.9,277.5l51.3-17.1l-29.7,32.3L832.9,277.5z M850,270.4l-8.2-37.6
				l43.1,26.4L850,270.4z M841.8,231.8l27.1-36.8l16.4,63.2L841.8,231.8z M856.3,153.7l41.2-2.2l-28.2,40.9L856.3,153.7z
				 M899.1,151.5l32.7,28.2l-61.3,13L899.1,151.5z M894.6,41.5l27.9,46.1l-27.9,1.5V41.5z M893.5,88.7l-45.7-35L893.5,40V88.7z
				 M854.1,12.9l38.6,26L847,52.7L854.1,12.9z M845.9,51.9l-17.8-23.4l24.6-16L845.9,51.9z M851.5,12.2l-24.2,15.2l-20.1-26
				L851.5,12.2z M806.5,2.1l19.7,26l-19.7,12.2V2.1z M823.2,84.2l-23-30.5l5.4-11.5L823.2,84.2z M805.4,40.4l-26.9-15.7l26.9-22.6
				V40.4z M803.9,1.4l-26.4,22.3L744.1,8L803.9,1.4z M775.6,24.1l-26,5.8L743,8.8L775.6,24.1z M748.2,30.4l-32.7,7l26.4-28.6
				L748.2,30.4z M738.9,10.3l-37.3,40.6l-7.5-13.4L738.9,10.3z M693.2,38.2l7.4,13.8l-33.5,36L693.2,38.2z M701,53l19.3,36.4
				l-54.6,1.5L701,53z M719.2,90.6l-29,35.3L665.7,92L719.2,90.6z M664.9,93.2l24.2,33.4l-31.6,8.5L664.9,93.2z M657.1,138.1
				l16.8,20.4L656,193.9L657.1,138.1z M656,197.2l50.2,2.2l-46.1,57.2L656,197.2z M706.9,200.6l10.4,59.5l-56.5-2.6L706.9,200.6z
				 M661.2,260.4l44.2,46.1l-26.4,2.2L661.2,260.4z M679.6,310l26.6-2.4l-4.5,30.1L679.6,310z M707.3,308.8l17.4,24.4l-21.9,5.2
				L707.3,308.8z M703.6,339.6l21.9-5.2l19.7,27.5L703.6,339.6z M727,334l43.1-10l-22.7,38.6L727,334z M748.2,363.4l23-39l25.3,45.7
				L748.2,363.4z M773,325l35.7,23.4l-11.3,21L773,325z M798.7,370l11.1-20.8l25.3,16.4L798.7,370z M810.6,348.1l13.4-25.3l11.9,42
				L810.6,348.1z M836.6,363.7l-11.5-41.3l19.7,8.2L836.6,363.7z M837.7,364.8l8.2-33.8l32,13.7L837.7,364.8z M846.3,329.9l8.2-34.2
				l23.4,47.6L846.3,329.9z M879.3,343.6l-24.2-49l59.9,5.6L879.3,343.6z M855.6,293.5l30.8-33L915,299L855.6,293.5z M915.8,298.3
				l-28.6-39l43.5-29L915.8,298.3z M886.8,258.2L870.1,195l60.6,33.8L886.8,258.2z M931,227.7l-60.2-33.8l61.3-13L931,227.7z
				 M900.1,150.8l31.6-11.1l0.4,39L900.1,150.8z"/>
			<path class="st3" d="M744.5,159.3"/>
		</g>
		<g>
			<path class="st3" d="M1322.6,226.6l-0.8-68.7l-0.8-43.9l-5.6-35.3l5.5-69.8l-50.1-0.1l-38.1,0.8l-24.3,47.2l-14.9,27.5
				l-19.3,43.9l-20.5,38.6l-21.2-36.4l-28.3-42l-9.6-33.4l-23.1-44.6l-42.4-10.8L985,12.2l-0.8,31.2l-0.9,48.3l13.8,47.2L984,179
				v48.7l0.4,46.5l-1.1,53.1l1.8,43.8l45.3-1.1l42,1.1l2.2-63.1l-2.2-33.8l0.8-72.9l52,85.9l55.4,1.1l29-49.8l22.3-40.9l1.5,39.4
				l-3,76.9l3,56.1l54.3,0.4l33.1,0.7l-1.2-72.5L1322.6,226.6z M1318.4,295.3l-17.1-53.5l19.7-13.8L1318.4,295.3z M1231.9,313.9
				l36.4-28.3l29.4,66L1231.9,313.9z M1296.5,353.2l-20.8,4.2l-41.2-40.9L1296.5,353.2z M1233.4,195.4l55-26l11.5,71.7l-45.7,6.3
				L1233.4,195.4z M1252.7,247l-18.2-10.4l-1.1-38.3L1252.7,247z M1222.6,69.4l74,15.2l-54.3,20.1L1222.6,69.4z M1240.4,103.9
				l-34.2-14.8l15.2-19.3L1240.4,103.9z M1302.9,99.5l-11.5,21.2l7.4-33.8L1302.9,99.5z M1299.3,85.1l14.3-5.4l-10,18.6L1299.3,85.1
				z M1289.5,124l-45-18.9l53.5-19.7L1289.5,124z M1289.5,166.4l1.2-40.1l13.7,14.5L1289.5,166.4z M1312.2,129.9l8.2,27.3
				l-30.5,10.2L1312.2,129.9z M1289.1,125.9l-1.1,40.8l-20.5-28.2L1289.1,125.9z M1266.8,137.7l-23.1-31.2l45,18.2L1266.8,137.7z
				 M1265.7,138.1l-33.4,19.7l10-51.3L1265.7,138.1z M1266.5,139.3l20.8,28.6l-54.3-9.3L1266.5,139.3z M1299.1,242.6l-30.5,41.2
				l-14.1-35L1299.1,242.6z M1267.9,284.9l-36,27.1l21.9-62L1267.9,284.9z M1269.8,285.6l48.3,13.4l-19.9,49.6L1269.8,285.6z
				 M1269.8,284.6l30.5-41.6l17.8,54.6L1269.8,284.6z M1301,240.7l-11.2-69.1l31.2,54.6L1301,240.7z M1321.1,224l-31.6-55l31.2-10.4
				L1321.1,224z M1320.4,153.9l-7.5-25.4l7.1-12.3L1320.4,153.9z M1304.7,139.6l-13.7-14.5l28.9-10.3L1304.7,139.6z M1319.6,113.5
				l-28.9,10.8l23.6-43.3L1319.6,113.5z M1314.8,72l-2.6-30.8l7.4-25.7L1314.8,72z M1320,10.3l-8.2,27.9l-2.1-27.3L1320,10.3z
				 M1311,44.5l3,33.8l-14.5,5.2l9.3-66.1L1311,44.5z M1308.2,10.5l-9.8,71.5l-26.2-72L1308.2,10.5z M1271,10.9l27.1,73l-75.4-15.6
				L1271,10.9z M1222.6,66.4l4.5-22.6l40.5-31.5L1222.6,66.4z M1233.7,10.6l33.7-0.3l-40,31.8L1233.7,10.6z M1231.9,14l-6,29.3
				l-15.2,11.5L1231.9,14z M1225.6,44.8l-4.4,22.7l-11.2-10.8L1225.6,44.8z M1209.2,57.9l11.1,10.8l-23.9,14.1L1209.2,57.9z
				 M1218.5,71.6l-13.4,17.1l-9.6-4.5L1218.5,71.6z M1194.8,85.1l9.6,4.3l-26.8,34.2L1194.8,85.1z M1205.5,90.2l35,14.9l-63.9,21.9
				L1205.5,90.2z M1241.2,106.2l-10.1,52l-55-29.7L1241.2,106.2z M1229.7,158.6l-47.6,13.8l-6.7-42.8L1229.7,158.6z M1174.3,130.3
				l6.6,42l-26.4-3.9L1174.3,130.3z M987,326.9l26.4-7.8l6.7,10L987,326.9z M1019.7,330.3l-13.7,16L985.5,328L1019.7,330.3z
				 M1050.5,63.8L1033.4,24l27.1,13.8L1050.5,63.8z M1061.3,38.5l31.2,16.3l-40.9,10.1L1061.3,38.5z M1049.4,64.5l-27.1-8.9l10-31.2
				L1049.4,64.5z M1049.7,65.9l-39,26.1l11.5-35.3L1049.7,65.9z M1050.9,66.6l52,22.5l-44.2,63.2l-47.9-58.7L1050.9,66.6z
				 M1057.2,152.3l-59.1-13.8l11.9-43.8L1057.2,152.3z M1056.8,153.4l-37.5,13L998.9,140L1056.8,153.4z M1042.4,198.7L986.3,179
				l32.7-11.1L1042.4,198.7z M1020.1,167.5l37.9-13.4l-14.1,44.6L1020.1,167.5z M1044.5,200.4l6.4,14.3l-35.3,26.8L1044.5,200.4z
				 M1045.3,200.6l25.3-0.7l-18.6,14.1L1045.3,200.6z M1070.6,251.3l-56.2-7.6l36.8-27.9L1070.6,251.3z M1013,242.9l-10-23
				l39.4-18.6L1013,242.9z M1054.2,304.2l-68.3-30.1l26.7-29L1054.2,304.2z M1054.2,305.4l-40.1,12.2l-27.5-42L1054.2,305.4z
				 M1014.5,318.8l39.4-12.4l-32.7,22.4L1014.5,318.8z M1054.6,307.2l-14.5,36.8l-17.8-14.1L1054.6,307.2z M1055.7,307.6l4.8,18.6
				l-27.5,39L1055.7,307.6z M1056.8,306.1l16.3,2.6l-11.8,16.3L1056.8,306.1z M1055.7,304.2l-41.3-58.3l56.5,28.6L1055.7,304.2z
				 M1016.3,245.2l54.9,7.3L1071,273L1016.3,245.2z M1052.4,215l19.3-14.5l-0.4,49.4L1052.4,215z M1045,199.1l13.7-43.8l13,43.5
				L1045,199.1z M1127.1,167.9l-23.4,46.1l-16.3-22.7L1127.1,167.9z M1086.6,190.2l-26.4-36l66.9,12.3L1086.6,190.2z M1129,166.7
				l22.3,3l-45.3,42.7L1129,166.7z M1152.7,170.1h1.1l10.8,74.3l-59.8-29.4L1152.7,170.1z M1155,170.1l26,3.7l-15.6,68.4L1155,170.1
				z M1153.9,168.6l-24.6-2.9l3.3-33.1L1153.9,168.6z M1128.2,165.6l-66.9-12.6l70.2-21.5L1128.2,165.6z M1131.2,130.3l-71,21.9
				l43.5-62.5L1131.2,130.3z M1102.9,87.6L1052.4,66l41.6-10.4L1102.9,87.6z M1092.9,53.8L1062,37.4l9.3-25.2L1092.9,53.8z
				 M1060.9,36.7l-28-14l37.3-10.9L1060.9,36.7z M1069.1,10.6l-32.3,10L1030.1,1L1069.1,10.6z M1035.5,20.7l-3.9,1.1l-19.7-4.1
				L1029,1.4L1035.5,20.7z M1030.4,22.9l-43.8,18.6l24.1-23.1L1030.4,22.9z M1027.1,1.4l-16.7,16l-22.3-4.9L1027.1,1.4z M986.3,13.3
				l23,4.8l-23.8,22.7L986.3,13.3z M1031.2,23.7l-10,31.6l-35.7-11.9L1031.2,23.7z M985.5,44.5l35.7,11.9L1009.6,92l-24.2-46.8V44.5
				z M985.5,47.4l23.4,45.3l-24.3-1.3L985.5,47.4z M984.7,92.4l24.5,1.5l-11.9,42.7L984.7,92.4z M997.8,140.3l20.5,26.4l-32.7,11.5
				L997.8,140.3z M1042.7,199.8l-40.5,18.9l-16.8-38.7L1042.7,199.8z M1001.1,219.1l10.4,23.4l-26.3-15.3l-0.1-45.3L1001.1,219.1z
				 M1011.9,244.4l-26.4,28.2l-0.4-43.8L1011.9,244.4z M985.5,276.4l27.1,41.6l-28.2,8.6L985.5,276.4z M984.4,328.8l20.8,18.6
				l-18.9,21.6L984.4,328.8z M987,370l18.9-21.9l23.1,20.8L987,370z M1030.1,368.4l-23.5-21.1l14.6-16.8l18.3,14.5L1030.1,368.4z
				 M1031.6,368.9l13.7-19l24.9,20.1L1031.6,368.9z M1046,349.1l15-21.1l10,40.9L1046,349.1z M1071.3,366.3l-9.7-39.8l11.9-16.7
				L1071.3,366.3z M1073.6,307.2l-16.8-2.2l14.5-28.2L1073.6,307.2z M1072.8,198.3l-12.3-42l24.9,34.6L1072.8,198.3z M1086.2,192
				l15.6,21.5l-28.2-14.5L1086.2,192z M1074,200.6l29.3,15.3l20.5,66.5L1074,200.6z M1104.8,216.2l59.5,29.3l-38.3,40.1
				L1104.8,216.2z M1127.1,286l37.9-39.8l14.1,40.9L1127.1,286z M1180.2,286.4l-14.1-40.5l41.6-7.1L1180.2,286.4z M1166.1,244.4
				l16-69.1l26,62.4L1166.1,244.4z M1209.2,237l-26.4-62.8l49.1,21.2L1209.2,237z M1183.5,173.4l47.2-13.8l1.1,34.6L1183.5,173.4z
				 M1233,194.3l-1.1-34.6l55,8.9L1233,194.3z M1234.5,238l18.6,10.5l-21.5,61.3L1234.5,238z M1231.5,315.4l43.1,42.4l-40.2,10.8
				L1231.5,315.4z M1238.2,368.9l37.2-10l10.8,10.4L1238.2,368.9z M1287.2,368.9l-10.4-10.4l18.6-4L1287.2,368.9z M1288.4,369.3
				l9.3-16l20.8,16.7L1288.4,369.3z M1298.4,352.2l20-50.6l1.2,67.7L1298.4,352.2z"/>
			<line class="st3" x1="1066.8" y1="262.5" x2="1066.8" y2="262.5"/>
		</g>
	</g>
</g>
<g>
	<g>
		<polygon class="st3" points="19.4,6.4 21,7.3 21.9,2.2 		"/>
		<polygon class="st3" points="22.1,8.3 29.5,16.3 31.7,7 		"/>
		<polyline class="st3" points="25.8,7 31.9,6.2 32,5.7 28.5,3.6 22.9,7.3 25.8,7 		"/>
		<polyline class="st3" points="35.5,13.1 33.7,6.6 32.8,6.1 30.2,16.8 36.7,18 35.5,13.1 		"/>
		<polygon class="st3" points="34.7,7.2 36.1,12.4 39,9.8 		"/>
		<polygon class="st3" points="36.3,13.2 37.5,17.5 44.8,5.6 		"/>
		<polygon class="st3" points="42.3,18.5 50.4,19.1 41.9,12 41.2,13 		"/>
		<polygon class="st3" points="38,18.1 41.5,18.4 40.6,14 		"/>
		<polygon class="st3" points="38.2,19 42.8,25.4 41.6,19.2 		"/>
		<polygon class="st3" points="42.4,19.3 43.8,26.3 50.6,19.9 		"/>
		<polygon class="st3" points="51.6,20.1 44.6,26.6 62.5,26.3 		"/>
		<polygon class="st3" points="52.6,19.7 63.2,25.8 60.8,17.9 		"/>
		<polygon class="st3" points="55.3,10.2 52.2,19 60.4,17.2 		"/>
		<polyline class="st3" points="54.6,9.9 49.1,10.1 51.6,18.4 54.6,9.9 		"/>
		<polygon class="st3" points="47.3,4.4 48.8,9.3 54,9 		"/>
		<polygon class="st3" points="42.3,11.3 50.8,18.5 46.5,4.4 		"/>
		<polygon class="st3" points="38.1,5.8 40,8.9 45.3,4.1 		"/>
		<polygon class="st3" points="34.8,0.2 37.7,5.1 45.1,3.3 		"/>
		<polygon class="st3" points="33,5.2 38.9,8.8 34.1,0.7 		"/>
		<polygon class="st3" points="29.2,3.1 32.2,4.9 33.3,0.4 		"/>
		<polygon class="st3" points="24.1,0.4 28.3,2.8 32.4,0 		"/>
		<polygon class="st3" points="23,0.8 21.9,7.1 27.6,3.3 		"/>
		<polygon class="st3" points="14.9,3.8 18.7,6 21.8,0.9 		"/>
		<polyline class="st3" points="4.3,49.1 9.7,40.5 0.2,37.4 4.3,49.1 		"/>
		<polygon class="st3" points="0.4,53.9 4.1,55 3.8,50.8 		"/>
		<polygon class="st3" points="14.2,15.6 21.7,16.2 20.9,8.8 		"/>
		<polygon class="st3" points="11.6,47.8 12.3,55.7 18.9,45.4 		"/>
		<polygon class="st3" points="10.9,41 11.5,47.1 18.6,44.5 		"/>
		<polygon class="st3" points="11.1,40.3 19.2,43.9 19.4,33.9 		"/>
		<polygon class="st3" points="11.6,36.9 12.8,38 19.2,32.9 14.2,25.5 		"/>
		<polygon class="st3" points="13.7,16.6 14.4,23.9 21.7,21.2 		"/>
		<polygon class="st3" points="10.2,18.3 13.5,23.1 13,16.7 		"/>
		<polygon class="st3" points="1.8,23.1 9.8,23.7 10.9,20.8 9.5,18.6 		"/>
		<polygon class="st3" points="11.5,21.6 7.6,31 13.5,24.5 		"/>
		<polygon class="st3" points="7.1,32.8 10.9,36.2 13.3,25.9 		"/>
		<polygon class="st3" points="7.4,34.3 10.5,39.7 12.2,38.5 		"/>
		<polygon class="st3" points="10.1,41.5 5.1,49.3 10.7,47.3 		"/>
		<polygon class="st3" points="4.9,50.1 11.5,56.1 10.7,48.1 		"/>
		<polygon class="st3" points="14.7,24.7 19.7,32 22,21.9 		"/>
		<polygon class="st3" points="15,16.5 22.1,20.5 21.8,17 		"/>
		<polygon class="st3" points="22.6,17 22.9,20.6 28.3,17.5 		"/>
		<polygon class="st3" points="22.5,16.3 28.8,16.8 21.8,9.1 		"/>
		<polygon class="st3" points="14.4,4.4 13.7,15 20.6,8 		"/>
		<polygon class="st3" points="13.5,4.7 6.5,10.9 13.3,9.4 		"/>
		<polygon class="st3" points="6.2,11.7 12.9,15.3 13.2,10.2 		"/>
		<polygon class="st3" points="6.3,12.7 9.7,17.6 12.5,16 		"/>
		<polygon class="st3" points="5.2,12.4 1.3,22.5 9,18 		"/>
		<polygon class="st3" points="1.3,23.9 6.2,32.2 9.4,24.6 		"/>
		<polygon class="st3" points="0.1,36.4 9.6,39.7 0.9,24.7 		"/>
		<polygon class="st3" points="0,39.1 0,53.1 3.7,49.9 		"/>
		<polygon class="st3" points="0.4,54.7 4.7,64.4 4.1,55.8 		"/>
		<polygon class="st3" points="4.6,51 5.6,65.5 11.3,57.2 		"/>
		<polygon class="st3" points="37.2,70.8 41.4,76 46.1,69.2 		"/>
		<polygon class="st3" points="31.2,71.8 40,75.7 36.4,70.9 		"/>
		<polyline class="st3" points="46,63.9 47.1,67.6 49.5,64.1 44.4,58.3 46,63.9 		"/>
		<polygon class="st3" points="35.3,66.1 46.4,68.1 45.4,64.5 		"/>
		<polygon class="st3" points="47.6,68.3 57.8,68.6 50.2,64.6 		"/>
		<polygon class="st3" points="43.4,57.3 34.3,65.4 45.2,63.8 		"/>
		<polygon class="st3" points="33.9,66.6 36.7,70.1 44.7,68.6 		"/>
		<polyline class="st3" points="32.8,70.8 35.8,70.2 33,66.8 30.6,71.2 32.8,70.8 		"/>
		<polygon class="st3" points="23.4,69.4 29.7,71.3 32.1,66.8 		"/>
		<polygon class="st3" points="22.2,59.5 27.4,67.3 32.1,65.9 		"/>
		<polygon class="st3" points="21.3,59.6 22.3,68.9 26.6,67.5 		"/>
		<polygon class="st3" points="15.7,61.3 21.5,68.1 20.5,58.7 		"/>
		<polygon class="st3" points="13.7,55.2 6.7,65.4 19.8,58.1 		"/>
		<polygon class="st3" points="6.4,66.4 21,68.8 15,61.7 		"/>
		<polygon class="st3" points="14.2,54.4 20.3,57.4 19.4,46.1 		"/>
		<polygon class="st3" points="6.1,67.2 12.3,76.9 21.1,69.6 		"/>
		<polygon class="st3" points="12.9,77.5 22,82.5 21.6,70.2 		"/>
		<polygon class="st3" points="22.5,69.9 22.8,81.9 29.2,72 		"/>
		<path class="st3" d="M23.1,82.8l9.3,0.5l-2.6-10.6L23.1,82.8z"/>
		<polygon class="st3" points="30.4,72.4 33.2,83 40.6,76.7 		"/>
		<polygon class="st3" points="41.4,77.1 34.4,83 47.3,80.2 		"/>
		<polygon class="st3" points="41.9,76.5 48,79.6 46.7,69.6 		"/>
		<polygon class="st3" points="47.4,69 48.7,79.4 58.5,69.4 		"/>
		<polygon class="st3" points="23.1,82.8 32.3,83.3 29.7,72.7 		"/>
		<polygon class="st3" points="44.3,56.9 50,63.4 55.8,55.4 		"/>
		<polygon class="st3" points="43.8,46.4 43.9,56.2 55.6,54.7 		"/>
		<polygon class="st3" points="44,45.6 55.8,53.9 50.8,40 		"/>
		<polygon class="st3" points="51.5,39.6 56.7,53.7 61.9,38.7 		"/>
		<polygon class="st3" points="47.8,36.1 51.2,38.9 59.5,38.1 		"/>
		<polygon class="st3" points="46.7,36.1 45.7,39.4 44.1,44.5 50.3,39.3 		"/>
		<polygon class="st3" points="34.1,36 44.9,38.7 45.8,35.8 		"/>
		<polygon class="st3" points="33,36.5 43.1,44.9 44.7,39.5 		"/>
		<polygon class="st3" points="39.5,43 33.5,50.7 42.7,45.6 		"/>
		<polygon class="st3" points="31.8,36.5 32.4,50.9 38.8,42.5 		"/>
		<polygon class="st3" points="42.3,46.6 33.6,51.6 39.1,51.3 		"/>
		<polygon class="st3" points="39.8,51.6 43,55.5 43,46.9 		"/>
		<polygon class="st3" points="50.7,63.9 58.8,68.2 56.4,55.9 		"/>
		<polygon class="st3" points="57.2,55.4 59.5,67.4 62.9,56.7 		"/>
		<polygon class="st3" points="57.2,54.7 63,55.9 62.2,40.2 		"/>
	</g>
	<g>
		<polygon class="st3" points="235.4,5.7 238.8,13.5 240.7,8.4 		"/>
		<polygon class="st3" points="241.4,8.8 239.4,14.1 247.6,12.1 		"/>
		<polygon class="st3" points="232.7,12.2 238.1,14 234.7,6 		"/>
		<polygon class="st3" points="232.5,13 230.2,20 238,14.8 		"/>
		<polygon class="st3" points="230.1,21 240.6,33.9 250.3,20.1 238.9,15.1 		"/>
		<polygon class="st3" points="227.2,31 239.6,33.9 229.7,21.8 		"/>
		<polygon class="st3" points="240,14.8 250.3,19.2 248.5,12.7 		"/>
		<polygon class="st3" points="241.7,8.1 247.8,11.3 243.6,3.1 		"/>
		<polygon class="st3" points="235.5,4.9 241,7.7 242.8,2.8 		"/>
		<polygon class="st3" points="234.5,0.3 235.8,4.1 242,2.2 		"/>
		<polygon class="st3" points="230.5,3.6 234.5,4.4 235,4.3 233.8,0.5 		"/>
		<polygon class="st3" points="229.8,4.2 225.5,8.4 233.4,5 		"/>
		<polygon class="st3" points="225.7,2.5 229.6,3.4 232.5,0.6 		"/>
		<polyline class="st3" points="224.4,3.1 224.3,8.4 228.9,4 224.4,3.1 		"/>
		<polygon class="st3" points="224.7,9.5 231.9,12 234,5.6 		"/>
		<polygon class="st3" points="224.4,10.2 229.4,20 231.8,12.7 		"/>
		<polygon class="st3" points="224.1,20.3 228.9,20.5 224.2,11.5 		"/>
		<polygon class="st3" points="224.2,21 226.7,29.8 229.1,21.3 		"/>
		<polygon class="st3" points="225.8,73.9 231.4,74.2 230.2,72.5 		"/>
		<polygon class="st3" points="224.7,74.6 228.6,78 231.2,75 		"/>
		<polygon class="st3" points="227.7,32 231.8,37.2 239.3,34.6 		"/>
		<polygon class="st3" points="225,40.4 236.2,44.3 231.5,38.2 		"/>
		<polygon class="st3" points="232.3,37.9 237.2,44.3 240.1,35.2 		"/>
		<polygon class="st3" points="228.3,49.8 230.3,54.4 236.2,46.1 		"/>
		<polygon class="st3" points="224.5,61.9 238.9,68.3 230.1,55.9 		"/>
		<polygon class="st3" points="225,63 230.6,71.6 238.9,69.1 		"/>
		<polygon class="st3" points="226.9,32.2 224.4,39.8 231,37.5 		"/>
		<polygon class="st3" points="224.5,41.1 227.9,49.1 236.3,45.2 		"/>
		<polygon class="st3" points="224.2,51.2 229.4,54.2 227.3,49.6 224.2,42.3 		"/>
		<polygon class="st3" points="224.2,52.2 224.3,61 229.6,55.3 		"/>
		<polygon class="st3" points="224.2,63.4 224,73.6 229.8,71.8 		"/>
		<polygon class="st3" points="224,75 224.4,82.9 228.1,78.7 		"/>
		<polygon class="st3" points="228.7,79.2 224.9,83.5 233.2,83.3 		"/>
		<polygon class="st3" points="229.2,78.6 234,83 236,78.2 232.2,75.2 		"/>
		<polygon class="st3" points="235,83.3 242.5,83.5 237.7,79.6 		"/>
		<polygon class="st3" points="237.4,45.8 232,53.4 238.6,48.4 		"/>
		<polygon class="st3" points="238,45.5 239.2,47.9 242.5,45.4 		"/>
		<polygon class="st3" points="231.2,54.9 242.9,56.5 238.9,49.2 		"/>
		<polygon class="st3" points="231,72.3 232.2,74.1 238,70.1 		"/>
		<polygon class="st3" points="232.8,74.7 236.3,77.5 239.2,70.2 		"/>
		<polygon class="st3" points="239.9,70.5 235.8,80.8 240.8,73.8 		"/>
		<polygon class="st3" points="240.6,69.6 241.4,73 243.5,70.1 		"/>
		<polygon class="st3" points="231.4,56.3 239.9,68.4 243.1,62.2 		"/>
		<polygon class="st3" points="232.5,55.9 243.2,61.4 243.2,57.3 		"/>
		<polygon class="st3" points="239.5,48.7 243.3,55.5 243.3,45.8 		"/>
		<polygon class="st3" points="240.6,35.9 237.9,44.7 243.3,44.6 		"/>
		<polygon class="st3" points="238.1,79 243,82.9 241,74.9 		"/>
		<polygon class="st3" points="241.6,74 243.3,81.1 243.7,71 		"/>
		<polygon class="st3" points="240.6,68.8 243.7,69.2 243.3,63.6 		"/>
		<polygon class="st3" points="241.7,36.6 244,44.4 246.3,43 		"/>
		<polygon class="st3" points="247.5,43.3 250.8,47.8 255.6,38.5 		"/>
		<polygon class="st3" points="241.6,35.1 247,42.6 255.5,37.7 		"/>
		<polygon class="st3" points="256.8,37.9 252.3,46.8 261.1,38.5 		"/>
		<polygon class="st3" points="262.8,38.7 264.9,53.4 268.1,39.4 		"/>
		<polygon class="st3" points="257,37.1 261.8,37.7 257.6,30.7 		"/>
		<polygon class="st3" points="242.3,34.4 256.2,37.1 256.9,30 		"/>
		<polygon class="st3" points="250.9,20.6 241.6,33.9 256.7,29.2 		"/>
		<polygon class="st3" points="244.6,45 249.6,47.5 246.8,43.7 		"/>
		<polygon class="st3" points="244.8,46 254.6,62 250.6,48.9 		"/>
		<polygon class="st3" points="251.5,49.3 256,64.1 264.2,55.6 		"/>
		<polygon class="st3" points="256.8,64.5 267.6,64.7 264.7,56.2 		"/>
		<polygon class="st3" points="265.4,55.8 268.3,64.2 274,54.3 		"/>
		<polygon class="st3" points="268.8,40.4 265.4,55 274.2,53.5 		"/>
		<polygon class="st3" points="251.6,48.5 264.4,54.8 262,38.7 		"/>
		<polygon class="st3" points="274.1,20.5 268.2,28.1 281.2,23.6 		"/>
		<polygon class="st3" points="268,29 279.6,35.3 281.8,24.2 		"/>
		<polygon class="st3" points="267.5,29.6 268.9,38.6 278.8,35.7 		"/>
		<polygon class="st3" points="262.8,37.8 268.1,38.6 266.8,30.2 		"/>
		<polygon class="st3" points="269.3,39.8 274.9,53 279.6,44.2 		"/>
		<polygon class="st3" points="269.8,39.2 279.7,43.5 279.5,36.4 		"/>
		<polygon class="st3" points="278.4,15.9 282.5,23.2 293.8,19 		"/>
		<polygon class="st3" points="274.6,19.9 281.4,22.8 277.6,16 		"/>
		<polygon class="st3" points="295.2,20.4 294.2,25.4 295.9,22.3 		"/>
		<polygon class="st3" points="295.6,19.2 296.4,21.4 298,18.3 		"/>
		<polygon class="st3" points="283.6,23.6 292.9,27.5 294.7,19.5 		"/>
		<polygon class="st3" points="298.6,18.9 293.9,27.5 299.7,25.3 		"/>
		<polygon class="st3" points="298.5,9.1 298.8,13 299.5,5.8 		"/>
		<polygon class="st3" points="298,2.4 298.3,7 299.7,2.3 		"/>
		<polyline class="st3" points="297.7,9.9 297.4,6 295.7,18.3 298.4,17.3 297.7,9.9 		"/>
		<polygon class="st3" points="289.5,2.3 295,17.3 297,2.4 		"/>
		<polygon class="st3" points="278.4,15.1 294.6,18.4 288.8,2.7 		"/>
		<polygon class="st3" points="279.1,9.8 278.3,13.9 286.4,4.2 		"/>
		<polygon class="st3" points="280.6,2.4 279.4,8.7 287.3,2.4 		"/>
		<polygon class="st3" points="279.4,4.7 275.9,11.3 278.4,9.4 		"/>
		<polygon class="st3" points="275.4,12.6 277.4,14.6 278.2,10.5 		"/>
		<polygon class="st3" points="274.9,13.3 272.6,17.8 277,15.3 		"/>
		<polygon class="st3" points="272.3,18.9 273.8,19.6 276,16.8 		"/>
		<polygon class="st3" points="271.7,19.4 268.8,26 273.3,20.2 		"/>
		<polygon class="st3" points="282.5,24.6 280.4,35.1 287.3,31 		"/>
		<polygon class="st3" points="281,35.6 292,37.5 287.8,31.7 		"/>
		<polygon class="st3" points="280.7,44.3 285.2,55.7 295.2,54.3 292.6,38.6 		"/>
		<polygon class="st3" points="280.8,53.3 284.2,55.3 280.6,46.3 		"/>
		<polygon class="st3" points="293.6,29 293.4,36.5 296.1,31.7 		"/>
		<polygon class="st3" points="298.2,29.9 293.7,37.3 299.8,35.3 		"/>
		<polygon class="st3" points="288.5,31.3 292.5,36.8 292.7,28.8 		"/>
		<polygon class="st3" points="283.5,24.5 288,30.7 292.3,28.1 		"/>
		<polygon class="st3" points="285.5,56.5 288.4,63.7 294.7,55.2 		"/>
		<polygon class="st3" points="285,57.3 280.5,69.9 287.9,64.4 		"/>
		<polygon class="st3" points="293.7,40.1 295.9,54 299.9,51.1 		"/>
		<polygon class="st3" points="293.5,38.3 300,49.6 299.9,36.1 		"/>
		<polygon class="st3" points="298.7,29 299.8,32.8 299.8,27.1 		"/>
		<polygon class="st3" points="293.9,28.3 296.5,31 299.4,26.3 		"/>
		<polygon class="st3" points="280.3,36.3 280.5,43.5 291.6,38.2 		"/>
		<polygon class="st3" points="280.8,54.2 280.2,68.4 284.5,56.3 		"/>
		<polygon class="st3" points="296.1,54.8 299.5,65.4 300,52.1 		"/>
		<polygon class="st3" points="280.5,71 294.4,79 288.2,65 		"/>
		<polygon class="st3" points="282.2,72.9 290,80.7 294,79.9 		"/>
		<polygon class="st3" points="289.1,65 295,78.3 299.2,67.9 		"/>
		<polygon class="st3" points="289,64.2 299.2,67 295.4,55.5 		"/>
		<polygon class="st3" points="280.2,72.1 280.8,83.1 289.2,80.9 		"/>
		<polygon class="st3" points="283.3,83.3 291.7,83.4 289.8,81.6 		"/>
		<polygon class="st3" points="293.3,83.4 298.9,83.5 295,80.4 		"/>
		<polygon class="st3" points="295.4,79.7 299.7,83.1 299.4,69.6 		"/>
		<polygon class="st3" points="290.7,81.4 292.5,83.1 293.9,80.7 		"/>
	</g>
	<g>
		<polygon class="st3" points="183.9,9.8 185.8,14.3 191.3,12 		"/>
		<polygon class="st3" points="184.1,9.1 191.3,11.2 187.9,6.6 		"/>
		<polygon class="st3" points="173.7,14.7 178.2,17.1 177.6,12.6 		"/>
		<polygon class="st3" points="191.9,19.5 202.1,19.7 192.7,12.6 		"/>
		<polygon class="st3" points="188.3,19.5 191.1,19.5 191.8,13.6 		"/>
		<polygon class="st3" points="186.1,15 187.7,19 191.4,12.7 		"/>
		<polygon class="st3" points="180,17.7 186.7,19.2 184.2,15.9 		"/>
		<polygon class="st3" points="181.8,12.7 179.5,17.1 183.7,15.2 		"/>
		<polygon class="st3" points="178.3,6.7 181.7,11.2 182.6,9.3 		"/>
		<polygon class="st3" points="177.5,6.9 178.9,16.6 181.3,12 		"/>
		<polygon class="st3" points="176.7,6.7 173.7,13.7 177.4,11.8 		"/>
		<polygon class="st3" points="170.7,7 172.9,13.7 176.2,5.8 		"/>
		<polygon class="st3" points="163.3,8.7 172.2,14 170,7.2 		"/>
		<polygon class="st3" points="188.6,6.3 192.1,10.9 193.5,3.1 		"/>
		<polygon class="st3" points="184.2,0.5 188.1,5.6 192.9,2.6 		"/>
		<polygon class="st3" points="183.6,1 183.6,8.4 187.4,6.1 		"/>
		<polygon class="st3" points="182.2,11.9 186.1,17.1 183.1,10 		"/>
		<polygon class="st3" points="177.4,5.3 182.8,8.5 182.8,0.8 		"/>
		<polygon class="st3" points="170.1,1.7 176.7,4.8 181.9,0.4 		"/>
		<polygon class="st3" points="169.3,2.2 170.6,6.2 175.5,5.1 		"/>
		<polygon class="st3" points="168.5,2.2 163.4,7.8 169.7,6.4 		"/>
		<polygon class="st3" points="158.1,8.3 159.5,10.9 166.5,3.2 		"/>
		<polygon class="st3" points="182.3,65.6 192.9,66 189,63.2 		"/>
		<polygon class="st3" points="180.5,66.5 176.1,72.7 186.5,72.5 		"/>
		<polygon class="st3" points="176.6,73.5 183.9,78.3 186.7,73.2 		"/>
		<polygon class="st3" points="181.4,66.4 187.1,72 187.9,66.7 		"/>
		<polygon class="st3" points="188.8,66.7 187.9,71.7 193.2,66.9 		"/>
		<polygon class="st3" points="188.1,72.6 191.9,74.3 193.4,67.7 		"/>
		<polygon class="st3" points="170.5,82.1 180.6,83.5 175.3,73.9 		"/>
		<polygon class="st3" points="176.5,74.4 181.3,83.1 183.5,79 		"/>
		<polygon class="st3" points="184.2,79.5 182,83.5 189.1,82.6 		"/>
		<polygon class="st3" points="184.6,78.7 189.6,82 187.2,73.8 		"/>
		<polygon class="st3" points="187.9,73.4 190.2,81.4 191.7,75 		"/>
		<polygon class="st3" points="192.5,75.3 190.8,82.2 198.9,78.1 		"/>
		<polygon class="st3" points="192.7,74.5 199,77.2 194.3,67.7 		"/>
		<polygon class="st3" points="194.8,67 199.9,77.3 207.5,68.2 		"/>
		<polygon class="st3" points="195,66.2 207.4,67.4 201.5,59.3 		"/>
		<polygon class="st3" points="202,58.7 208,66.9 211.2,52.6 		"/>
		<polygon class="st3" points="198.2,44.6 201.7,58 211,51.7 		"/>
		<polygon class="st3" points="198.7,43.9 211.4,51 211.6,41.1 		"/>
		<polygon class="st3" points="205.1,34.1 211.6,39.8 211.5,31.8 		"/>
		<line class="st3" x1="173.8" y1="63.4" x2="160.2" y2="69.8"/>
		<polygon class="st3" points="151,60 154.5,69.6 159.8,69.2 		"/>
		<polygon class="st3" points="155,70.4 159.3,75.8 160.2,69.9 		"/>
		<polygon class="st3" points="160.9,70.6 160.1,76.3 164.3,75.3 		"/>
		<polygon class="st3" points="161.8,69.4 174.8,72.7 173.3,64 		"/>
		<polygon class="st3" points="161.7,70.3 165.2,75.1 173.6,73.2 		"/>
		<polygon class="st3" points="174.7,63.8 179.3,66.8 181.8,63.4 		"/>
		<polygon class="st3" points="164,58.8 165.9,59.7 168.4,55.4 		"/>
		<polygon class="st3" points="163.5,59.4 161.8,66.5 165.6,60.4 		"/>
		<polygon class="st3" points="166.6,60 172.8,62.6 169.7,54.8 		"/>
		<polygon class="st3" points="150.9,58.8 160.5,68.7 162.8,59.3 		"/>
		<polygon class="st3" points="166.3,60.7 161.5,68.6 172.6,63.4 		"/>
		<polygon class="st3" points="174.1,64.3 175.5,72.2 178.8,67.4 		"/>
		<polygon class="st3" points="160.7,77 168.5,81.2 164.8,76 		"/>
		<polygon class="st3" points="165.7,75.8 169.9,81.7 174.5,73.7 		"/>
		<polygon class="st3" points="149.6,44.1 160,44.5 153.4,36.4 		"/>
		<polygon class="st3" points="153.8,35.6 160,43.3 156.7,29.7 		"/>
		<polygon class="st3" points="166.4,43.4 169.3,51.5 169.1,37.6 		"/>
		<polygon class="st3" points="165.4,48.9 168.8,52.4 166.1,44.9 		"/>
		<polygon class="st3" points="158,29.7 165.9,42.5 168.9,36 		"/>
		<polygon class="st3" points="161.5,45.2 164.7,48.3 165.4,43.9 		"/>
		<polygon class="st3" points="165.2,49.9 163.8,58 169.2,53.9 		"/>
		<polygon class="st3" points="157.9,30.9 161.1,44.4 165.3,43 		"/>
		<polygon class="st3" points="161.4,46.1 163.2,56.6 164.6,49.3 		"/>
		<polygon class="st3" points="149.6,31.8 149.4,42.7 152.9,35.8 		"/>
		<polygon class="st3" points="149.4,44.8 150.3,57.4 160,45.3 		"/>
		<polygon class="st3" points="150.7,58 162.7,58.5 160.5,45.9 		"/>
		<polygon class="st3" points="150,30.9 153.2,35 156.1,29.2 		"/>
		<polygon class="st3" points="162.8,9.2 164.2,19.5 171.9,14.7 		"/>
		<polygon class="st3" points="159.9,11.7 163.2,17.9 162,9.4 		"/>
		<polygon class="st3" points="173,15.3 172.3,18.5 177.5,17.6 		"/>
		<polygon class="st3" points="172.1,19.3 170.5,26.6 177.7,18.4 		"/>
		<polygon class="st3" points="172.1,15.5 165.8,19.4 171.5,18.6 		"/>
		<polygon class="st3" points="164.6,20.4 169.5,27.1 171.3,19.4 		"/>
		<polygon class="st3" points="167.3,28.5 169.2,33.8 169.3,28.4 		"/>
		<polygon class="st3" points="165.2,22.5 167,27.7 169,27.7 		"/>
		<polygon class="st3" points="158.2,28.9 168.8,35 166.5,28.5 		"/>
		<polygon class="st3" points="163.7,20.9 157.7,28.1 166.2,27.7 		"/>
		<polygon class="st3" points="157.6,8.9 152.8,18.1 158.9,11.5 		"/>
		<polygon class="st3" points="159.3,12.2 151.9,20.1 163.3,19.8 		"/>
		<polygon class="st3" points="151.8,20.9 156.9,27.9 162.9,20.6 		"/>
		<polygon class="st3" points="151.3,21.5 149.8,30.1 156.2,28.3 		"/>
		<polygon class="st3" points="209.7,21.2 205,33.3 211.4,31 		"/>
		<polygon class="st3" points="203.7,21.4 204.6,32.2 207.1,25.8 		"/>
		<polygon class="st3" points="204,20.5 207.4,24.9 209.3,20.2 		"/>
		<polygon class="st3" points="197.7,29.8 203.9,33.3 202.9,21.4 		"/>
		<polygon class="st3" points="190.5,53.9 181.6,65.1 188.7,62.4 		"/>
		<polygon class="st3" points="191.2,54.3 189.5,62.1 192.6,61.1 		"/>
		<polygon class="st3" points="188.3,20.3 190.9,25.8 201.6,20.5 		"/>
		<polygon class="st3" points="191.6,26.4 197.1,29.5 202.2,21.1 		"/>
		<polygon class="st3" points="194.6,36.1 191.9,50.8 197.1,43.7 		"/>
		<polygon class="st3" points="191.6,27.3 194.5,33.7 196.7,30.1 		"/>
		<polygon class="st3" points="197.4,30.5 195.2,34 202.9,33.7 		"/>
		<polygon class="st3" points="189.9,62.9 194.2,65.9 200.1,59.5 		"/>
		<polygon class="st3" points="191.7,53.2 193.4,60.8 200.5,58.6 		"/>
		<polygon class="st3" points="191.7,52.3 200.8,57.8 197.4,44.6 		"/>
		<polygon class="st3" points="195,34.9 197.7,42.9 203.5,34.4 		"/>
		<polygon class="st3" points="204.4,34.5 198.4,43.1 211.2,40.4 		"/>
		<polygon class="st3" points="203.6,10.1 203.6,19.7 209.2,19.4 		"/>
		<polygon class="st3" points="193.3,12 202.8,19.4 202.8,9.2 		"/>
		<polygon class="st3" points="194.3,3.1 192.9,11.3 202.3,8.5 		"/>
		<polygon class="st3" points="195,66.2 207.4,67.4 201.5,59.3 		"/>
		<polygon class="st3" points="202,58.7 208,66.9 211.2,52.6 		"/>
		<polygon class="st3" points="198.2,44.6 201.7,58 211,51.7 		"/>
		<polygon class="st3" points="198.7,43.9 211.4,51 211.6,41.1 		"/>
		<polygon class="st3" points="205.1,34.1 211.6,39.8 211.5,31.8 		"/>
	</g>
	<g>
		<polygon class="st3" points="84.7,12.3 96,17.7 93.7,9.7 		"/>
		<polygon class="st3" points="76.4,10 83.4,11.7 90.3,2.7 		"/>
		<polygon class="st3" points="100.2,8.2 97.3,17.8 109.9,13 		"/>
		<polygon class="st3" points="100.8,7.5 109.4,12 104.4,5.4 		"/>
		<polygon class="st3" points="98.4,18.2 112.8,19.8 110.6,13.6 		"/>
		<polygon class="st3" points="101,0.9 100.4,6.8 104,4.8 		"/>
		<polygon class="st3" points="92.6,1.7 99.6,6.8 100.2,0.4 		"/>
		<polygon class="st3" points="92.4,2.6 96.7,17 99.5,7.8 		"/>
		<polygon class="st3" points="91.6,2.4 84.7,11.5 93.5,9 		"/>
		<polygon class="st3" points="76.8,0.8 80.7,6.9 90.3,1.8 		"/>
		<polygon class="st3" points="76.4,1.6 75.8,9.5 80,7.2 		"/>
		<polygon class="st3" points="116.9,29.9 124.5,22.2 113.5,20.6 		"/>
		<polygon class="st3" points="115.1,20 123.5,21.2 117.7,17.8 		"/>
		<polygon class="st3" points="118.3,17.1 125,21.2 125.6,10.9 		"/>
		<polygon class="st3" points="111.9,13.2 117.6,16.8 124.6,10.6 		"/>
		<polygon class="st3" points="123,8.3 114.5,11.9 125.1,9.8 		"/>
		<polygon class="st3" points="113.6,19.8 114,19.8 117,17.3 111.6,14.1 		"/>
		<polygon class="st3" points="126.2,21.8 136,25.3 134.4,15.9 		"/>
		<polygon class="st3" points="126.4,10.6 125.7,21.1 133.9,15.3 		"/>
		<polygon class="st3" points="126.6,9.8 133.3,13.9 128,6.6 		"/>
		<polygon class="st3" points="115,1.6 125.9,9.4 127.4,6 		"/>
		<polygon class="st3" points="112.8,0.9 111.3,12.5 122.2,7.7 		"/>
		<polygon class="st3" points="105.1,5 110.6,12.1 112,1 		"/>
		<polygon class="st3" points="101.5,0.3 104.7,4.3 111.1,0.6 		"/>
		<polygon class="st3" points="117.6,30.4 125.3,38 124.9,22.9 		"/>
		<polygon class="st3" points="125.7,23.1 126,37.9 132,30.9 		"/>
		<polygon class="st3" points="107.6,37.2 108.4,42.6 113,41.7 		"/>
		<polygon class="st3" points="107.8,36.3 113.7,41.2 116.4,31.2 		"/>
		<polygon class="st3" points="113.9,43.3 110.2,53.6 116.1,51.4 		"/>
		<polygon class="st3" points="117.1,51.9 118,55.3 123.2,49.7 		"/>
		<polygon class="st3" points="114.6,42.8 116.8,51.1 123.7,48.6 		"/>
		<polygon class="st3" points="117.3,31.1 114.5,41.4 124.9,38.7 		"/>
		<polygon class="st3" points="108.5,43.3 109.7,52.6 113.3,42.4 		"/>
		<polygon class="st3" points="118.5,55.9 129,59.5 124.4,49.5 		"/>
		<polygon class="st3" points="114.9,42.1 124.3,48.1 125.2,39.6 		"/>
		<polygon class="st3" points="126,39.6 125.1,47.4 130,41.5 		"/>
		<polygon class="st3" points="134.8,37 130.9,41.7 126.7,46.8 133,42.4 		"/>
		<polygon class="st3" points="126.7,39.1 130.5,40.8 134.7,36.1 		"/>
		<polygon class="st3" points="132.5,31.5 127,38.1 135.2,35 		"/>
		<polygon class="st3" points="126.5,22.7 132.5,30.3 135.9,26.2 		"/>
		<polygon class="st3" points="123.9,70 136.3,73.7 129.7,60.9 		"/>
		<polygon class="st3" points="124.1,70.9 127.3,76.8 135.7,74.3 		"/>
		<polygon class="st3" points="118.5,56.7 121.4,64.2 128.8,60.2 		"/>
		<polygon class="st3" points="115.5,68.2 122.7,69.7 120.9,65.3 		"/>
		<polygon class="st3" points="110.9,54.2 117.2,55.6 116.3,52.2 		"/>
		<polygon class="st3" points="110.1,54.8 110.9,56.8 115.7,56 		"/>
		<polygon class="st3" points="111.1,57.6 113.5,64.9 117.2,56.6 		"/>
		<polygon class="st3" points="113.9,65.9 114.5,67.8 120.6,64.5 117.7,57.2 		"/>
		<polygon class="st3" points="115.4,69 121,75.1 122.7,70.6 		"/>
		<polygon class="st3" points="122.9,72.4 119.2,81.8 122.9,78.1 		"/>
		<polyline class="st3" points="121.6,64.9 123.4,69.4 128.6,61.2 121.6,64.9 		"/>
		<polygon class="st3" points="106.8,58.1 113.1,66.3 109.4,55 		"/>
		<polygon class="st3" points="108,60.9 112,69.4 113.8,68.3 		"/>
		<polygon class="st3" points="112.6,70 120.4,75.7 114.3,68.9 		"/>
		<polygon class="st3" points="112.8,71.1 116.8,79.6 115,72.7 		"/>
		<polygon class="st3" points="116,73.5 118.2,82.2 120.4,76.6 		"/>
		<polygon class="st3" points="119.1,83 129.4,83 123.4,78.8 		"/>
		<polygon class="st3" points="123.7,78 129.5,82.2 123.7,71.8 		"/>
		<polygon class="st3" points="102.5,44.4 108.9,52.8 107.7,43.5 		"/>
		<polygon class="st3" points="77.6,46.2 87,46.3 85.6,35.7 		"/>
		<polygon class="st3" points="105,52.9 108.5,53.6 102.9,46.2 		"/>
		<polygon class="st3" points="80.4,60.1 78.6,70.9 94.1,66.1 		"/>
		<polygon class="st3" points="79.2,71.6 88.6,76.4 94.3,66.9 		"/>
		<polygon class="st3" points="85.2,50 76.7,59.7 79.9,59.3 		"/>
		<polygon class="st3" points="84.6,13 90.7,23.8 96,18.5 		"/>
		<polygon class="st3" points="83.7,13 76.3,27.8 90,24.2 		"/>
		<polygon class="st3" points="76.5,28.5 85.6,34.2 89.9,25.1 		"/>
		<polygon class="st3" points="77.3,46.9 79.5,55.4 86.6,47.1 		"/>
		<polygon class="st3" points="87.6,47.3 81.2,58.6 94.8,51.1 		"/>
		<polygon class="st3" points="86.3,35.5 87.7,45.8 92.7,39.3 		"/>
		<polygon class="st3" points="86.4,34.4 95.3,35.2 90.6,25.4 		"/>
		<polygon class="st3" points="91,24.6 95.6,34.1 96.2,19.4 		"/>
		<polygon class="st3" points="106.9,37.3 102.7,43.6 107.6,42.7 		"/>
		<polygon class="st3" points="96.3,36.9 96.1,44.7 101.1,43.8 		"/>
		<polygon class="st3" points="96.7,36.1 101.8,43.4 106.4,36.6 		"/>
		<polygon class="st3" points="75.7,10.7 75.9,26.7 83,12.5 		"/>
		<polygon class="st3" points="76,29.1 77.1,45.4 85.2,34.9 		"/>
		<polygon class="st3" points="77,49 76.2,59.2 78.8,56.1 		"/>
		<polygon class="st3" points="76.2,60.6 78,69.4 79.6,60.1 		"/>
		<polygon class="st3" points="78.4,72.1 76.4,83.2 87.9,76.9 		"/>
		<polygon class="st3" points="77.4,83.6 95.2,83.6 88.7,77.4 		"/>
		<polygon class="st3" points="89.3,76.8 95.7,83 94.8,67.5 		"/>
		<polygon class="st3" points="81,59.6 94.8,65.6 95.1,51.8 		"/>
		<polygon class="st3" points="88.6,46.9 95.1,50.4 95.3,45.7 		"/>
		<polygon class="st3" points="93.4,39.7 88.4,46.1 95.3,44.9 95.4,40.9 		"/>
		<polygon class="st3" points="87.6,35.4 95.4,40 95.5,36.1 		"/>
		<polygon class="st3" points="96.1,45.6 96,50.1 100.8,44.8 		"/>
		<polygon class="st3" points="96.3,50.9 104.1,52.6 101.6,45 		"/>
		<polygon class="st3" points="97.7,52 105.5,57 104.4,53.5 		"/>
		<polygon class="st3" points="105.3,53.7 106.5,57.1 108.8,54.5 		"/>
		<polygon class="st3" points="135.7,34.7 132.6,30.9 136.3,26.5 		"/>
		<polygon class="st3" points="130.9,83.4 137.1,74.5 141.3,83.9 		"/>
		<polygon class="st3" points="127.4,77.3 136.8,74.5 130.7,83.2 		"/>
	</g>
</g>
<g>
	<path class="st4" d="M5.3,97.8h0.2l7.6,10.1l7.6-10.1h0.2V115h-1v-13.4c0-0.6,0-1.5,0-1.5s-0.5,0.8-0.9,1.4l-6,7.8H13l-5.9-7.8
		c-0.4-0.5-0.9-1.4-0.9-1.4s0,0.9,0,1.5V115h-1V97.8z"/>
	<path class="st4" d="M31.8,97.8h0.3L39,115h-1l-1.3-3.3h-9.4L26,115h-1L31.8,97.8z M36.3,110.8l-3.8-9.7c-0.2-0.6-0.5-1.5-0.5-1.5
		s-0.2,0.9-0.5,1.5l-3.8,9.7H36.3z"/>
	<path class="st4" d="M44.9,107.3l7.3-9.3h1.1l-6.6,8.4L54,115h-1.3l-6.6-7.8l-2.2,2.7c0,0,0,5.1,0,5.1h-1V98h1v9
		c0,0.7-0.1,1.5-0.1,1.9C44.2,108.4,44.7,107.6,44.9,107.3z"/>
	<path class="st4" d="M57.8,98h9.9v0.9h-8.9v9.1h7.9v0.9h-7.9v5.2H68v0.9H57.8V98z"/>
	<path class="st4" d="M82.3,98.9h-5.4V98h11.8v0.9h-5.4v16h-1V98.9z"/>
	<path class="st4" d="M92.3,98h1v10h9.9V98h1V115h-1v-6.1h-9.9v6.1h-1V98z"/>
	<path class="st4" d="M109.7,98h1V115h-1V98z"/>
	<path class="st4" d="M117.8,101.1c-0.3-0.4-0.8-1.1-0.8-1.1s0.1,0.8,0.1,1.3V115h-0.9V97.8h0.3l10.8,14c0.3,0.4,0.8,1.1,0.8,1.1
		s-0.1-0.8-0.1-1.3V98h0.9v17.1h-0.3L117.8,101.1z"/>
	<path class="st4" d="M133.2,106.5c0-5.2,3.9-8.7,8.7-8.7c2.3,0,4.4,0.7,5.8,2.1l-0.7,0.7c-1.2-1.3-3-1.9-5.1-1.9
		c-4.4,0-7.7,3.3-7.7,7.7c0,4.4,3.3,7.7,7.7,7.7c2.9,0,4.7-0.9,5.8-2v-3.9h-5.5v-0.9h6.5v5.2c-1.4,1.4-3.5,2.5-6.8,2.5
		C137.1,115.2,133.2,111.6,133.2,106.5z"/>
	<path class="st4" d="M151.8,111.8l0.9-0.4c0.8,1.5,2.1,2.9,4.8,2.9c2.2,0,4-1.3,4-3.4c0-2-1.1-3-3.5-4.1l-1.6-0.7
		c-2.4-1.1-3.5-2.2-3.5-4.4c0-2.3,1.9-3.8,4.2-3.8c2.3,0,3.5,1.2,4.3,2.4l-0.8,0.5c-0.7-1.1-1.7-2.1-3.5-2.1c-2,0-3.2,1.1-3.2,2.9
		c0,1.7,0.8,2.5,2.9,3.5l1.6,0.7c2.7,1.2,4.1,2.7,4.1,5c0,2.6-2.1,4.3-5,4.3C154.2,115.2,152.6,113.5,151.8,111.8z"/>
	<path class="st4" d="M173.1,98h3.5c4.6,0,6.7,2.6,6.7,6.3c0,3.6-2.1,6.3-6.7,6.3h-2.4v4.4h-1V98z M176.5,109.7
		c4.3,0,5.8-2.4,5.8-5.4c0-3-1.5-5.4-5.8-5.4h-2.3v10.8H176.5z"/>
	<path class="st4" d="M187.7,98h9.9v0.9h-8.9v9.1h7.9v0.9h-7.9v5.2h9.2v0.9h-10.2V98z"/>
	<path class="st4" d="M212.5,115h-1.2l-3.5-4.8c-0.6,0.1-1.3,0.2-2.1,0.2h-2.4v4.6h-1V98h3.4c4.6,0,6.7,2.7,6.7,6.2
		c0,2.5-1.2,4.6-3.6,5.6L212.5,115z M205.5,109.5c4.3,0,5.8-2.5,5.8-5.3s-1.5-5.3-5.8-5.3h-2.3v10.5H205.5z"/>
	<path class="st4" d="M215.5,111.8l0.9-0.4c0.8,1.5,2.1,2.9,4.8,2.9c2.2,0,4-1.3,4-3.4c0-2-1.1-3-3.5-4.1l-1.6-0.7
		c-2.4-1.1-3.5-2.2-3.5-4.4c0-2.3,1.9-3.8,4.2-3.8c2.3,0,3.5,1.2,4.3,2.4l-0.8,0.5c-0.7-1.1-1.7-2.1-3.5-2.1c-2,0-3.2,1.1-3.2,2.9
		c0,1.7,0.8,2.5,2.9,3.5l1.6,0.7c2.7,1.2,4.1,2.7,4.1,5c0,2.6-2.1,4.3-5,4.3C217.9,115.2,216.3,113.5,215.5,111.8z"/>
	<path class="st4" d="M229.4,106.5c0-5.2,3.9-8.7,8.7-8.7c4.8,0,8.7,3.5,8.7,8.7c0,5.2-3.9,8.7-8.7,8.7
		C233.2,115.2,229.4,111.6,229.4,106.5z M245.6,106.5c0-4.4-3.3-7.7-7.6-7.7c-4.4,0-7.6,3.3-7.6,7.7c0,4.4,3.3,7.7,7.6,7.7
		C242.4,114.2,245.6,110.9,245.6,106.5z"/>
	<path class="st4" d="M252.6,101.1c-0.3-0.4-0.8-1.1-0.8-1.1s0.1,0.8,0.1,1.3V115h-0.9V97.8h0.3l10.8,14c0.3,0.4,0.8,1.1,0.8,1.1
		s-0.1-0.8-0.1-1.3V98h0.9v17.1h-0.3L252.6,101.1z"/>
	<path class="st4" d="M274.5,97.8h0.3l6.9,17.1h-1l-1.3-3.3h-9.4l-1.3,3.3h-1L274.5,97.8z M278.9,110.8l-3.8-9.7
		c-0.2-0.6-0.5-1.5-0.5-1.5s-0.2,0.9-0.5,1.5l-3.8,9.7H278.9z"/>
	<path class="st4" d="M285.5,98h1v16h8.1v0.9h-9.2V98z"/>
</g>
</svg>
